<?xml version="1.0" encoding="iso-8859-1"?>
<!-- Generator: Adobe Illustrator 18.0.0, SVG Export Plug-In . SVG Version: 6.00 Build 0)  -->
<!DOCTYPE svg PUBLIC "-//W3C//DTD SVG 1.1//EN" "http://www.w3.org/Graphics/SVG/1.1/DTD/svg11.dtd">
<svg version="1.1" id="Capa_1" xmlns="http://www.w3.org/2000/svg" xmlns:xlink="http://www.w3.org/1999/xlink" x="0px" y="0px"
	 viewBox="0 0 454.501 454.501" style="enable-background:new 0 0 454.501 454.501;" xml:space="preserve">
<g>
	<path d="M120.451,223.086c2.082,2.576,5.859,2.979,8.438,0.895c2.577-2.083,2.978-5.86,0.895-8.438l-21.418-26.503
		c-1.139-1.409-2.854-2.229-4.667-2.229s-3.527,0.819-4.667,2.229l-21.418,26.503c-2.083,2.578-1.682,6.355,0.895,8.438
		c1.11,0.897,2.443,1.333,3.768,1.333c1.75,0,3.485-0.762,4.67-2.229l10.751-13.304v11.255L77.615,245.89
		c-2.083,2.578-1.682,6.355,0.895,8.438c1.11,0.897,2.443,1.333,3.768,1.333c1.75,0,3.485-0.762,4.67-2.229l10.751-13.304v11.255
		l-20.084,24.853c-2.083,2.578-1.682,6.355,0.895,8.438c1.11,0.897,2.443,1.333,3.768,1.333c1.75,0,3.485-0.762,4.67-2.229
		l10.751-13.304v29.173c0,3.313,2.686,6,6,6s6-2.687,6-6v-29.174l10.752,13.304c2.082,2.576,5.859,2.979,8.438,0.895
		c2.577-2.083,2.978-5.86,0.895-8.438l-20.085-24.853v-11.255l10.752,13.304c2.082,2.576,5.859,2.979,8.438,0.895
		c2.577-2.083,2.978-5.86,0.895-8.438l-20.085-24.853v-11.255L120.451,223.086z"/>
	<path d="M429.564,444.234l-94.989-93.916c1.468,0.095,2.941,0.16,4.424,0.16c36.949,0,67.009-30.06,67.009-67.009
		c0-21.836-10.668-42.178-28.261-54.665c7.252-9.494,11.179-21.041,11.179-33.188c0-30.221-24.587-54.807-54.808-54.807
		c-14.046,0-27.526,5.418-37.657,15.003c-10.674-5.037-22.45-7.682-34.332-7.682c-10.241,0-20.327,1.979-29.722,5.713L78.556,1.733
		c-2.356-2.329-6.155-2.309-8.485,0.048c-2.33,2.356-2.308,6.155,0.048,8.485l150.893,149.188
		c-3.619,2.151-7.087,4.576-10.348,7.294c-2.545,2.122-2.889,5.905-0.768,8.451c2.122,2.545,5.906,2.89,8.451,0.768
		c12.252-10.211,27.801-15.835,43.782-15.835c11.422,0,22.725,2.869,32.685,8.298c2.448,1.335,5.497,0.805,7.352-1.278
		c8.116-9.114,19.763-14.341,31.953-14.341c23.604,0,42.808,19.203,42.808,42.807c0,9.843-3.308,19.174-9.385,26.742
		c-6.734-3.682-20.292-9.046-39.747-7.05c-5.446-15.727-20.397-27.055-37.953-27.055c-3.313,0-6,2.687-6,6s2.687,6,6,6
		c15.527,0,28.16,12.633,28.16,28.16c0,12.506-8.025,23.339-19.97,26.958c-3.172,0.96-4.964,4.31-4.003,7.481
		c0.785,2.592,3.165,4.262,5.74,4.262c0.576,0,1.162-0.083,1.741-0.259c17.042-5.162,28.491-20.611,28.491-38.442
		c0-0.423-0.019-0.841-0.032-1.261c13.899-1.248,24.084,2.074,29.776,4.747c3.415,1.604,8.341,4.863,9.462,5.601
		c15.394,10.133,24.801,27.392,24.801,45.968c0,30.332-24.677,55.009-55.009,55.009c-7.033,0-13.866-1.304-20.315-3.872
		L33.373,52.52c-2.356-2.33-6.156-2.309-8.485,0.048c-2.33,2.356-2.308,6.155,0.048,8.485l396.19,391.714
		c1.17,1.156,2.694,1.733,4.219,1.733c1.547,0,3.093-0.595,4.267-1.782C431.942,450.363,431.921,446.564,429.564,444.234z"/>
	<path d="M237.998,332.581c1.187,1.467,2.921,2.229,4.671,2.229c1.324,0,2.657-0.436,3.768-1.333
		c2.577-2.083,2.978-5.86,0.896-8.438l-21.418-26.503c-1.139-1.409-2.854-2.229-4.667-2.229s-3.527,0.819-4.667,2.229
		l-21.418,26.503c-2.083,2.578-1.682,6.355,0.895,8.438c2.577,2.083,6.355,1.682,8.438-0.895l10.751-13.304v11.255l-20.084,24.853
		c-2.083,2.578-1.682,6.355,0.895,8.438c2.577,2.083,6.355,1.682,8.438-0.895l10.751-13.304v11.255l-20.084,24.853
		c-2.083,2.578-1.682,6.355,0.895,8.438c2.577,2.083,6.355,1.682,8.438-0.895l10.751-13.304v29.073c0,3.313,2.686,6,6,6s6-2.687,6-6
		v-29.073l10.751,13.304c1.187,1.467,2.921,2.229,4.671,2.229c1.324,0,2.657-0.436,3.768-1.333c2.577-2.083,2.978-5.86,0.896-8.438
		l-20.085-24.853v-11.255l10.751,13.304c1.187,1.467,2.921,2.229,4.671,2.229c1.324,0,2.657-0.436,3.768-1.333
		c2.577-2.083,2.978-5.86,0.896-8.438l-20.085-24.853v-11.255L237.998,332.581z"/>
</g>
<g>
</g>
<g>
</g>
<g>
</g>
<g>
</g>
<g>
</g>
<g>
</g>
<g>
</g>
<g>
</g>
<g>
</g>
<g>
</g>
<g>
</g>
<g>
</g>
<g>
</g>
<g>
</g>
<g>
</g>
</svg>
