<?xml version="1.0" encoding="UTF-8" standalone="no"?>
<!-- Generator: Adobe Illustrator 19.1.0, SVG Export Plug-In . SVG Version: 6.00 Build 0)  -->

<svg
   xmlns:dc="http://purl.org/dc/elements/1.1/"
   xmlns:cc="http://creativecommons.org/ns#"
   xmlns:rdf="http://www.w3.org/1999/02/22-rdf-syntax-ns#"
   xmlns:svg="http://www.w3.org/2000/svg"
   xmlns="http://www.w3.org/2000/svg"
   xmlns:sodipodi="http://sodipodi.sourceforge.net/DTD/sodipodi-0.dtd"
   xmlns:inkscape="http://www.inkscape.org/namespaces/inkscape"
   version="1.1"
   id="Capa_1"
   x="0px"
   y="0px"
   viewBox="0 0 1000 1000"
   xml:space="preserve"
   sodipodi:docname="binocs_group.svg"
   width="1000"
   height="1000"
   inkscape:version="0.92.4 (5da689c313, 2019-01-14)"><metadata
   id="metadata87"><rdf:RDF><cc:Work
       rdf:about=""><dc:format>image/svg+xml</dc:format><dc:type
         rdf:resource="http://purl.org/dc/dcmitype/StillImage" /><dc:title></dc:title></cc:Work></rdf:RDF></metadata><defs
   id="defs85" /><sodipodi:namedview
   pagecolor="#ffffff"
   bordercolor="#666666"
   borderopacity="1"
   objecttolerance="10"
   gridtolerance="10"
   guidetolerance="10"
   inkscape:pageopacity="0"
   inkscape:pageshadow="2"
   inkscape:window-width="1920"
   inkscape:window-height="1017"
   id="namedview83"
   showgrid="false"
   inkscape:zoom="0.65186406"
   inkscape:cx="290.80626"
   inkscape:cy="404.9437"
   inkscape:window-x="-8"
   inkscape:window-y="-8"
   inkscape:window-maximized="1"
   inkscape:current-layer="Capa_1"
   showguides="true"
   inkscape:guide-bbox="true"><sodipodi:guide
     position="-111.98654,283.8015"
     orientation="0,1"
     id="guide4959"
     inkscape:locked="false" /><sodipodi:guide
     position="400.19856,610.41601"
     orientation="0,1"
     id="guide4961"
     inkscape:locked="false" /><sodipodi:guide
     position="314.48274,527.71739"
     orientation="1,0"
     id="guide4963"
     inkscape:locked="false" /><sodipodi:guide
     position="671.24944,767.12074"
     orientation="0,1"
     id="guide4965"
     inkscape:locked="false" /><sodipodi:guide
     position="613.62487,693.3961"
     orientation="1,0"
     id="guide4967"
     inkscape:locked="false" /></sodipodi:namedview>
















<g
   transform="matrix(0.44931929,0,0,0.44931929,322.87373,725.35307)"
   id="g4523"><g
     id="g4511"
     transform="matrix(1.4407586,-0.00806922,0.00806922,1.4407586,31.303205,-94.847917)"
     style="display:inline">
	<g
   id="g4465">
		<path
   style="fill:#b9bbc1"
   d="m 192,92 c -13.531,0 -25.664,8.574 -30.172,21.332 -1.477,4.164 0.703,8.738 4.875,10.211 2.733,0.982 5.594,0.241 7.695,-1.501 L 208,162.393 V 172 c 0,4.418 3.578,8 8,8 4.422,0 8,-3.582 8,-8 v -48 c 0,-17.645 -14.352,-32 -32,-32 z"
   id="path4463"
   inkscape:connector-curvature="0" />
	</g>
	<g
   id="g4469">
		<path
   style="fill:#8b8996"
   d="m 168,108 c -14.664,0 -28.523,5.629 -39.328,16.176 L 26.102,236.152 37.899,246.957 40.67,243.93 208,289.806 V 292 c 0,4.418 3.578,8 8,8 4.422,0 8,-3.582 8,-8 V 164 c 0,-30.879 -25.125,-56 -56,-56 z"
   id="path4467"
   inkscape:connector-curvature="0" />
	</g>
	<g
   id="g4473">
		<path
   style="fill:#b9bbc1"
   d="m 320,92 c 13.531,0 25.664,8.574 30.172,21.332 1.477,4.164 -0.703,8.738 -4.875,10.211 -2.733,0.982 -5.594,0.241 -7.695,-1.501 L 304,162.393 V 172 c 0,4.418 -3.578,8 -8,8 -4.422,0 -8,-3.582 -8,-8 v -48 c 0,-17.645 14.351,-32 32,-32 z"
   id="path4471"
   inkscape:connector-curvature="0" />
	</g>
	<g
   id="g4477">
		<path
   style="fill:#8b8996"
   d="m 344,108 c 14.664,0 28.523,5.629 39.328,16.176 l 102.57,111.977 -11.797,10.805 -2.771,-3.027 L 304,289.806 V 292 c 0,4.418 -3.578,8 -8,8 -4.422,0 -8,-3.582 -8,-8 V 164 c 0,-30.879 25.125,-56 56,-56 z"
   id="path4475"
   inkscape:connector-curvature="0" />
	</g>
	<g
   id="g4481">
		<circle
   style="fill:#53dcff"
   cx="112"
   cy="308"
   r="88"
   id="circle4479" />
	</g>
	<g
   id="g4485">
		<path
   style="fill:#5c546a"
   d="M 112,196 C 50.242,196 0,246.242 0,308 c 0,61.758 50.242,112 112,112 61.758,0 112,-50.242 112,-112 0,-61.758 -50.242,-112 -112,-112 z m 0,192 c -44.111,0 -80,-35.889 -80,-80 0,-44.111 35.889,-80 80,-80 44.111,0 80,35.889 80,80 0,44.111 -35.889,80 -80,80 z"
   id="path4483"
   inkscape:connector-curvature="0" />
	</g>
	<g
   id="g4489">
		<path
   style="fill:#5c546a"
   d="m 192,204 h 128 l 1.23,-0.017 C 305.661,219.23 296,240.487 296,264 v 28 h -80 v -28 c 0,-23.513 -9.661,-44.77 -25.23,-60.017"
   id="path4487"
   inkscape:connector-curvature="0" />
	</g>
	<g
   id="g4493">
		<circle
   style="fill:#ffffff"
   cx="128"
   cy="292"
   r="32"
   id="circle4491" />
	</g>
	<g
   id="g4497">
		<circle
   style="fill:#53dcff"
   cx="400"
   cy="308"
   r="88"
   id="circle4495" />
	</g>
	<g
   id="g4501">
		<path
   style="fill:#5c546a"
   d="m 400,196 c -61.758,0 -112,50.242 -112,112 0,61.758 50.242,112 112,112 61.758,0 112,-50.242 112,-112 0,-61.758 -50.242,-112 -112,-112 z m 0,192 c -44.111,0 -80,-35.889 -80,-80 0,-44.111 35.889,-80 80,-80 44.111,0 80,35.889 80,80 0,44.111 -35.889,80 -80,80 z"
   id="path4499"
   inkscape:connector-curvature="0" />
	</g>
	<g
   id="g4505">
		<circle
   style="fill:#ffffff"
   cx="416"
   cy="292"
   r="32"
   id="circle4503" />
	</g>
	<g
   id="g4509">
		<rect
   x="192"
   y="188"
   style="fill:#8b8996"
   width="128"
   height="16"
   id="rect4507" />
	</g>
</g><path
     style="fill:#545454;stroke-width:2.16949153"
     d="M 154.95271,502.96055 C 108.48274,490.78504 70.862306,459.23328 50.231446,415.1322 25.352831,361.951 31.417093,301.61626 66.596005,252.31743 111.27118,189.71078 199.58637,169.5607 269.61877,205.99555 c 28.51471,14.83499 54.41538,41.32579 69.51986,71.10382 l 6.18947,12.20232 0.0276,-8.8733 c 0.0677,-21.87415 -12.3758,-54.70303 -27.37827,-72.23004 l -7.15394,-8.35777 21.07646,-0.97772 c 11.59205,-0.53774 52.70925,-1.2381 91.37154,-1.55634 l 70.29511,-0.57863 -6.50145,8.3208 c -15.83397,20.26497 -24.03655,40.50327 -26.45387,65.26995 -0.84434,8.65085 -1.29813,15.72882 -1.0084,15.72882 0.28972,0 4.05511,-6.71447 8.36753,-14.92104 37.73553,-71.8108 122.46496,-104.05646 198.36733,-75.49307 32.10898,12.08317 56.76596,31.5352 76.05483,60.00008 30.25961,44.65454 36.26328,100.97099 16.06367,150.68255 -13.78148,33.91642 -44.36211,66.45634 -77.61054,82.58301 -25.388,12.31408 -42.37707,16.20298 -70.78455,16.20298 -28.5725,0 -45.39836,-3.88953 -71.4107,-16.50759 -17.40789,-8.44421 -23.34112,-12.84259 -40.13615,-29.75341 -10.83965,-10.91441 -22.95021,-25.37533 -26.91235,-32.1354 C 456.975,401.74952 448.50378,367.16839 449.88534,338.0541 l 0.7181,-15.13506 -47.77053,0.005 -47.77054,0.005 -0.10608,24.40678 c -0.20003,45.98866 -14.70575,80.67628 -47.45234,113.47274 -16.51935,16.54454 -22.86266,21.23971 -40.2225,29.77182 -11.33559,5.57128 -26.95593,11.60598 -34.71187,13.41046 -20.07154,4.66978 -57.77192,4.16946 -77.61678,-1.03006 z m 66.54562,-42.35025 c 41.45923,-9.7728 75.20059,-42.95992 85.85256,-84.44238 10.03012,-39.06074 -1.17441,-79.34783 -30.25953,-108.80142 -30.58459,-30.97205 -69.09463,-41.856 -110.56704,-31.24914 -43.20602,11.05024 -75.582119,44.90903 -84.87857,88.76569 -3.839865,18.11483 -3.821796,27.95893 0.08517,46.39692 4.747323,22.40384 15.242349,41.71162 31.50173,57.95393 29.25924,29.22854 68.78374,40.68311 108.26568,31.3764 z m 414.37289,-2.16949 c 40.76696,-9.60961 74.23761,-41.48005 85.86285,-81.75776 4.70583,-16.3041 4.73008,-45.56388 0.0512,-61.77292 -13.81881,-47.87301 -54.69995,-81.12415 -104.01846,-84.60461 -54.00105,-3.81091 -103.65943,31.13111 -119.30021,83.94533 -4.6244,15.61522 -4.63839,47.22308 -0.0278,62.91525 17.43369,59.33642 78.15728,95.2471 137.4325,81.27471 z"
     id="path4513"
     inkscape:connector-curvature="0" /><path
     style="fill:#404040;stroke-width:2.16949153"
     d="M 155.33433,503.17663 C 86.520871,484.60088 39.241357,426.16836 35.821368,355.47119 33.566974,308.86889 48.925265,268.65911 81.789831,235.12043 99.443938,217.1042 120.2505,204.09862 144.70508,195.79391 c 34.38614,-11.67743 82.1004,-9.34124 115.28071,5.64438 31.65915,14.2986 60.74305,41.34234 76.39164,71.033 l 8.87055,16.8304 0.0356,-8.67796 c 0.0863,-21.14583 -12.0888,-53.25405 -27.2985,-71.99094 l -7.36718,-9.07568 22.264,-0.71821 c 12.24519,-0.39502 53.34818,-1.00438 91.33997,-1.35413 l 69.07596,-0.63592 -7.76856,10.17416 c -14.88047,19.48838 -25.23121,47.56734 -25.10015,68.09043 l 0.0629,9.84927 7.5617,-14.17189 c 21.2429,-39.81268 58.28467,-68.93559 102.2147,-80.36307 22.87358,-5.95008 56.36838,-5.9895 79.13784,-0.0931 90.26337,23.37455 141.90987,118.17514 112.51836,206.53489 -7.21464,21.68938 -20.74357,42.63313 -39.9486,61.84329 -18.98381,18.98886 -37.0048,30.35196 -62.68918,39.52852 -14.02192,5.00977 -18.88791,5.58657 -48.14097,5.70657 -36.52892,0.14991 -48.73628,-2.64524 -78.10169,-17.88258 -18.18891,-9.438 -50.40868,-40.57357 -61.44172,-59.37421 C 457.34903,402.403 449.56622,371.73752 449.53502,339.7424 l -0.0164,-16.81356 h -47.31159 -47.3116 l -0.1779,24.40678 c -0.27548,37.81233 -8.56292,63.6915 -30.14674,94.13906 -18.49161,26.08549 -45.35732,46.14413 -77.54071,57.89392 -15.73319,5.74401 -20.99134,6.55136 -47.00307,7.21699 -23.76924,0.60824 -32.1909,-0.0341 -44.69278,-3.40893 z m 66.18579,-42.57141 c 40.55025,-9.55836 75.20588,-43.8285 85.9205,-84.96469 16.78807,-64.45379 -29.25008,-132.37277 -96.35739,-142.15376 -74.38011,-10.84101 -141.348283,55.45476 -130.729338,129.41675 4.585411,31.93784 22.259378,60.91876 48.306758,79.21113 27.95596,19.6327 60.51203,26.1154 92.85947,18.49057 z m 414.0547,-2.09527 c 41.92944,-9.88585 79.03775,-46.96973 87.42409,-87.36651 3.65861,-17.62345 1.55253,-50.68625 -4.17681,-65.57056 -13.63248,-35.41587 -46.22436,-63.93954 -82.95088,-72.59674 -39.58179,-9.33024 -80.4592,3.19385 -108.77486,33.32664 -22.95816,24.43148 -32.01839,46.90088 -32.01839,79.40569 0,32.50482 9.06023,54.9742 32.01839,79.40569 28.10548,29.90913 69.37711,42.61487 108.47846,33.39579 z"
     id="path4515"
     inkscape:connector-curvature="0" /><path
     style="fill:#777777;stroke-width:2.16949153"
     d="m 461.56594,271.94576 c 2.97342,-24.61037 11.51546,-46.06795 25.77701,-64.75159 4.25426,-5.57338 7.73502,-10.44906 7.73502,-10.83486 0,-0.76566 -185.18274,0.83388 -185.98139,1.60644 -0.26942,0.26062 3.53292,5.78562 8.44966,12.27778 14.23432,18.79534 25.59393,47.10457 25.6297,63.87172 0.013,5.83142 -0.92394,4.92868 -9.00133,-8.67796 -4.97783,-8.38535 -16.95488,-23.08287 -26.74405,-32.81871 -14.89501,-14.81387 -21.3413,-19.40007 -40.32885,-28.69187 -51.68014,-25.29032 -107.3849,-23.44032 -154.85179,5.14276 -6.9676,4.19566 -12.882689,7.36771 -13.144655,7.049 C 97.569913,214.2505 222.5475,79.839052 231.28542,73.960764 263.1138,52.548763 305.75909,57.439378 332.34536,85.550442 349.37442,103.55616 352.52391,112.62183 353.589,146.69934 l 0.89975,28.78748 46.97258,-0.58409 46.97257,-0.58409 0.20458,-26.03389 c 0.24689,-31.41549 4.56244,-44.95736 19.68861,-61.781313 18.06675,-20.09457 42.22807,-29.888595 67.14959,-27.219727 14.95805,1.601871 35.13832,10.394286 45.64779,19.888455 11.81974,10.677839 120.46299,129.088965 119.40812,130.143835 -0.55153,0.55153 -7.22139,-2.38403 -14.82192,-6.52348 -25.24514,-13.74915 -42.26133,-17.63833 -76.7344,-17.53821 -27.45656,0.0797 -32.03935,0.66639 -47.72881,6.10983 -9.54577,3.3119 -23.7017,9.52731 -31.45763,13.81202 -19.61583,10.83664 -50.89885,42.62001 -61.44783,62.43062 l -8.08663,15.18644 z"
     id="path4517"
     inkscape:connector-curvature="0" /><path
     style="fill:#9e9e9e;stroke-width:2.16949153"
     d="M 349.07043,108.22332 C 344.2867,94.708886 324.93925,74.238922 310.33634,67.241938 c -5.55365,-2.661035 -16.29264,-5.943855 -23.8644,-7.295158 -7.57177,-1.3513 -14.16765,-2.767841 -14.65751,-3.147867 -1.81161,-1.40542 7.64778,-9.98414 15.33564,-13.907888 18.21596,-9.29711 37.34879,-7.132389 51.7207,5.851769 12.37437,11.179493 15.48374,21.341237 14.73243,48.147053 l -0.62693,22.367813 z"
     id="path4519"
     inkscape:connector-curvature="0" /><path
     style="fill:#9e9e9e;stroke-width:2.16949153"
     d="m 447.49428,101.49207 c -0.17666,-27.910359 3.44285,-41.785153 13.35475,-51.193106 10.31709,-9.792552 19.52174,-13.743032 32.02139,-13.743032 13.74066,0 23.00328,3.777119 32.49147,13.249396 l 7.37313,7.360774 -12.93755,1.254165 c -31.78114,3.080863 -59.63678,25.935015 -69.30092,56.857923 -2.77152,8.86819 -2.86149,8.45508 -3.00227,-13.78612 z"
     id="path4521"
     inkscape:connector-curvature="0" /></g><g
   transform="matrix(0.44931929,0,0,0.44931929,652.6897,198.85093)"
   id="g4151"><g
     id="g4139"
     transform="matrix(1.4407586,-0.00806922,0.00806922,1.4407586,31.303205,-94.847917)"
     style="display:inline">
	<g
   id="g4093">
		<path
   style="fill:#b9bbc1"
   d="m 192,92 c -13.531,0 -25.664,8.574 -30.172,21.332 -1.477,4.164 0.703,8.738 4.875,10.211 2.733,0.982 5.594,0.241 7.695,-1.501 L 208,162.393 V 172 c 0,4.418 3.578,8 8,8 4.422,0 8,-3.582 8,-8 v -48 c 0,-17.645 -14.352,-32 -32,-32 z"
   id="path4091"
   inkscape:connector-curvature="0" />
	</g>
	<g
   id="g4097">
		<path
   style="fill:#8b8996"
   d="m 168,108 c -14.664,0 -28.523,5.629 -39.328,16.176 L 26.102,236.152 37.899,246.957 40.67,243.93 208,289.806 V 292 c 0,4.418 3.578,8 8,8 4.422,0 8,-3.582 8,-8 V 164 c 0,-30.879 -25.125,-56 -56,-56 z"
   id="path4095"
   inkscape:connector-curvature="0" />
	</g>
	<g
   id="g4101">
		<path
   style="fill:#b9bbc1"
   d="m 320,92 c 13.531,0 25.664,8.574 30.172,21.332 1.477,4.164 -0.703,8.738 -4.875,10.211 -2.733,0.982 -5.594,0.241 -7.695,-1.501 L 304,162.393 V 172 c 0,4.418 -3.578,8 -8,8 -4.422,0 -8,-3.582 -8,-8 v -48 c 0,-17.645 14.351,-32 32,-32 z"
   id="path4099"
   inkscape:connector-curvature="0" />
	</g>
	<g
   id="g4105">
		<path
   style="fill:#8b8996"
   d="m 344,108 c 14.664,0 28.523,5.629 39.328,16.176 l 102.57,111.977 -11.797,10.805 -2.771,-3.027 L 304,289.806 V 292 c 0,4.418 -3.578,8 -8,8 -4.422,0 -8,-3.582 -8,-8 V 164 c 0,-30.879 25.125,-56 56,-56 z"
   id="path4103"
   inkscape:connector-curvature="0" />
	</g>
	<g
   id="g4109">
		<circle
   style="fill:#53dcff"
   cx="112"
   cy="308"
   r="88"
   id="circle4107" />
	</g>
	<g
   id="g4113">
		<path
   style="fill:#5c546a"
   d="M 112,196 C 50.242,196 0,246.242 0,308 c 0,61.758 50.242,112 112,112 61.758,0 112,-50.242 112,-112 0,-61.758 -50.242,-112 -112,-112 z m 0,192 c -44.111,0 -80,-35.889 -80,-80 0,-44.111 35.889,-80 80,-80 44.111,0 80,35.889 80,80 0,44.111 -35.889,80 -80,80 z"
   id="path4111"
   inkscape:connector-curvature="0" />
	</g>
	<g
   id="g4117">
		<path
   style="fill:#5c546a"
   d="m 192,204 h 128 l 1.23,-0.017 C 305.661,219.23 296,240.487 296,264 v 28 h -80 v -28 c 0,-23.513 -9.661,-44.77 -25.23,-60.017"
   id="path4115"
   inkscape:connector-curvature="0" />
	</g>
	<g
   id="g4121">
		<circle
   style="fill:#ffffff"
   cx="128"
   cy="292"
   r="32"
   id="circle4119" />
	</g>
	<g
   id="g4125">
		<circle
   style="fill:#53dcff"
   cx="400"
   cy="308"
   r="88"
   id="circle4123" />
	</g>
	<g
   id="g4129">
		<path
   style="fill:#5c546a"
   d="m 400,196 c -61.758,0 -112,50.242 -112,112 0,61.758 50.242,112 112,112 61.758,0 112,-50.242 112,-112 0,-61.758 -50.242,-112 -112,-112 z m 0,192 c -44.111,0 -80,-35.889 -80,-80 0,-44.111 35.889,-80 80,-80 44.111,0 80,35.889 80,80 0,44.111 -35.889,80 -80,80 z"
   id="path4127"
   inkscape:connector-curvature="0" />
	</g>
	<g
   id="g4133">
		<circle
   style="fill:#ffffff"
   cx="416"
   cy="292"
   r="32"
   id="circle4131" />
	</g>
	<g
   id="g4137">
		<rect
   x="192"
   y="188"
   style="fill:#8b8996"
   width="128"
   height="16"
   id="rect4135" />
	</g>
</g><path
     style="fill:#545454;stroke-width:2.16949153"
     d="M 154.95271,502.96055 C 108.48274,490.78504 70.862306,459.23328 50.231446,415.1322 25.352831,361.951 31.417093,301.61626 66.596005,252.31743 111.27118,189.71078 199.58637,169.5607 269.61877,205.99555 c 28.51471,14.83499 54.41538,41.32579 69.51986,71.10382 l 6.18947,12.20232 0.0276,-8.8733 c 0.0677,-21.87415 -12.3758,-54.70303 -27.37827,-72.23004 l -7.15394,-8.35777 21.07646,-0.97772 c 11.59205,-0.53774 52.70925,-1.2381 91.37154,-1.55634 l 70.29511,-0.57863 -6.50145,8.3208 c -15.83397,20.26497 -24.03655,40.50327 -26.45387,65.26995 -0.84434,8.65085 -1.29813,15.72882 -1.0084,15.72882 0.28972,0 4.05511,-6.71447 8.36753,-14.92104 37.73553,-71.8108 122.46496,-104.05646 198.36733,-75.49307 32.10898,12.08317 56.76596,31.5352 76.05483,60.00008 30.25961,44.65454 36.26328,100.97099 16.06367,150.68255 -13.78148,33.91642 -44.36211,66.45634 -77.61054,82.58301 -25.388,12.31408 -42.37707,16.20298 -70.78455,16.20298 -28.5725,0 -45.39836,-3.88953 -71.4107,-16.50759 -17.40789,-8.44421 -23.34112,-12.84259 -40.13615,-29.75341 -10.83965,-10.91441 -22.95021,-25.37533 -26.91235,-32.1354 C 456.975,401.74952 448.50378,367.16839 449.88534,338.0541 l 0.7181,-15.13506 -47.77053,0.005 -47.77054,0.005 -0.10608,24.40678 c -0.20003,45.98866 -14.70575,80.67628 -47.45234,113.47274 -16.51935,16.54454 -22.86266,21.23971 -40.2225,29.77182 -11.33559,5.57128 -26.95593,11.60598 -34.71187,13.41046 -20.07154,4.66978 -57.77192,4.16946 -77.61678,-1.03006 z m 66.54562,-42.35025 c 41.45923,-9.7728 75.20059,-42.95992 85.85256,-84.44238 10.03012,-39.06074 -1.17441,-79.34783 -30.25953,-108.80142 -30.58459,-30.97205 -69.09463,-41.856 -110.56704,-31.24914 -43.20602,11.05024 -75.582119,44.90903 -84.87857,88.76569 -3.839865,18.11483 -3.821796,27.95893 0.08517,46.39692 4.747323,22.40384 15.242349,41.71162 31.50173,57.95393 29.25924,29.22854 68.78374,40.68311 108.26568,31.3764 z m 414.37289,-2.16949 c 40.76696,-9.60961 74.23761,-41.48005 85.86285,-81.75776 4.70583,-16.3041 4.73008,-45.56388 0.0512,-61.77292 -13.81881,-47.87301 -54.69995,-81.12415 -104.01846,-84.60461 -54.00105,-3.81091 -103.65943,31.13111 -119.30021,83.94533 -4.6244,15.61522 -4.63839,47.22308 -0.0278,62.91525 17.43369,59.33642 78.15728,95.2471 137.4325,81.27471 z"
     id="path4141"
     inkscape:connector-curvature="0" /><path
     style="fill:#404040;stroke-width:2.16949153"
     d="M 155.33433,503.17663 C 86.520871,484.60088 39.241357,426.16836 35.821368,355.47119 33.566974,308.86889 48.925265,268.65911 81.789831,235.12043 99.443938,217.1042 120.2505,204.09862 144.70508,195.79391 c 34.38614,-11.67743 82.1004,-9.34124 115.28071,5.64438 31.65915,14.2986 60.74305,41.34234 76.39164,71.033 l 8.87055,16.8304 0.0356,-8.67796 c 0.0863,-21.14583 -12.0888,-53.25405 -27.2985,-71.99094 l -7.36718,-9.07568 22.264,-0.71821 c 12.24519,-0.39502 53.34818,-1.00438 91.33997,-1.35413 l 69.07596,-0.63592 -7.76856,10.17416 c -14.88047,19.48838 -25.23121,47.56734 -25.10015,68.09043 l 0.0629,9.84927 7.5617,-14.17189 c 21.2429,-39.81268 58.28467,-68.93559 102.2147,-80.36307 22.87358,-5.95008 56.36838,-5.9895 79.13784,-0.0931 90.26337,23.37455 141.90987,118.17514 112.51836,206.53489 -7.21464,21.68938 -20.74357,42.63313 -39.9486,61.84329 -18.98381,18.98886 -37.0048,30.35196 -62.68918,39.52852 -14.02192,5.00977 -18.88791,5.58657 -48.14097,5.70657 -36.52892,0.14991 -48.73628,-2.64524 -78.10169,-17.88258 -18.18891,-9.438 -50.40868,-40.57357 -61.44172,-59.37421 C 457.34903,402.403 449.56622,371.73752 449.53502,339.7424 l -0.0164,-16.81356 h -47.31159 -47.3116 l -0.1779,24.40678 c -0.27548,37.81233 -8.56292,63.6915 -30.14674,94.13906 -18.49161,26.08549 -45.35732,46.14413 -77.54071,57.89392 -15.73319,5.74401 -20.99134,6.55136 -47.00307,7.21699 -23.76924,0.60824 -32.1909,-0.0341 -44.69278,-3.40893 z m 66.18579,-42.57141 c 40.55025,-9.55836 75.20588,-43.8285 85.9205,-84.96469 16.78807,-64.45379 -29.25008,-132.37277 -96.35739,-142.15376 -74.38011,-10.84101 -141.348283,55.45476 -130.729338,129.41675 4.585411,31.93784 22.259378,60.91876 48.306758,79.21113 27.95596,19.6327 60.51203,26.1154 92.85947,18.49057 z m 414.0547,-2.09527 c 41.92944,-9.88585 79.03775,-46.96973 87.42409,-87.36651 3.65861,-17.62345 1.55253,-50.68625 -4.17681,-65.57056 -13.63248,-35.41587 -46.22436,-63.93954 -82.95088,-72.59674 -39.58179,-9.33024 -80.4592,3.19385 -108.77486,33.32664 -22.95816,24.43148 -32.01839,46.90088 -32.01839,79.40569 0,32.50482 9.06023,54.9742 32.01839,79.40569 28.10548,29.90913 69.37711,42.61487 108.47846,33.39579 z"
     id="path4143"
     inkscape:connector-curvature="0" /><path
     style="fill:#777777;stroke-width:2.16949153"
     d="m 461.56594,271.94576 c 2.97342,-24.61037 11.51546,-46.06795 25.77701,-64.75159 4.25426,-5.57338 7.73502,-10.44906 7.73502,-10.83486 0,-0.76566 -185.18274,0.83388 -185.98139,1.60644 -0.26942,0.26062 3.53292,5.78562 8.44966,12.27778 14.23432,18.79534 25.59393,47.10457 25.6297,63.87172 0.013,5.83142 -0.92394,4.92868 -9.00133,-8.67796 -4.97783,-8.38535 -16.95488,-23.08287 -26.74405,-32.81871 -14.89501,-14.81387 -21.3413,-19.40007 -40.32885,-28.69187 -51.68014,-25.29032 -107.3849,-23.44032 -154.85179,5.14276 -6.9676,4.19566 -12.882689,7.36771 -13.144655,7.049 C 97.569913,214.2505 222.5475,79.839052 231.28542,73.960764 263.1138,52.548763 305.75909,57.439378 332.34536,85.550442 349.37442,103.55616 352.52391,112.62183 353.589,146.69934 l 0.89975,28.78748 46.97258,-0.58409 46.97257,-0.58409 0.20458,-26.03389 c 0.24689,-31.41549 4.56244,-44.95736 19.68861,-61.781313 18.06675,-20.09457 42.22807,-29.888595 67.14959,-27.219727 14.95805,1.601871 35.13832,10.394286 45.64779,19.888455 11.81974,10.677839 120.46299,129.088965 119.40812,130.143835 -0.55153,0.55153 -7.22139,-2.38403 -14.82192,-6.52348 -25.24514,-13.74915 -42.26133,-17.63833 -76.7344,-17.53821 -27.45656,0.0797 -32.03935,0.66639 -47.72881,6.10983 -9.54577,3.3119 -23.7017,9.52731 -31.45763,13.81202 -19.61583,10.83664 -50.89885,42.62001 -61.44783,62.43062 l -8.08663,15.18644 z"
     id="path4145"
     inkscape:connector-curvature="0" /><path
     style="fill:#9e9e9e;stroke-width:2.16949153"
     d="M 349.07043,108.22332 C 344.2867,94.708886 324.93925,74.238922 310.33634,67.241938 c -5.55365,-2.661035 -16.29264,-5.943855 -23.8644,-7.295158 -7.57177,-1.3513 -14.16765,-2.767841 -14.65751,-3.147867 -1.81161,-1.40542 7.64778,-9.98414 15.33564,-13.907888 18.21596,-9.29711 37.34879,-7.132389 51.7207,5.851769 12.37437,11.179493 15.48374,21.341237 14.73243,48.147053 l -0.62693,22.367813 z"
     id="path4147"
     inkscape:connector-curvature="0" /><path
     style="fill:#9e9e9e;stroke-width:2.16949153"
     d="m 447.49428,101.49207 c -0.17666,-27.910359 3.44285,-41.785153 13.35475,-51.193106 10.31709,-9.792552 19.52174,-13.743032 32.02139,-13.743032 13.74066,0 23.00328,3.777119 32.49147,13.249396 l 7.37313,7.360774 -12.93755,1.254165 c -31.78114,3.080863 -59.63678,25.935015 -69.30092,56.857923 -2.77152,8.86819 -2.86149,8.45508 -3.00227,-13.78612 z"
     id="path4149"
     inkscape:connector-curvature="0" /></g><g
   id="g4213"
   transform="matrix(0.44931929,0,0,0.44931929,-5.8601854,560.7143)"><g
     style="display:inline"
     transform="matrix(1.4407586,-0.00806922,0.00806922,1.4407586,31.303205,-94.847917)"
     id="g4201">
	<g
   id="g4155">
		<path
   inkscape:connector-curvature="0"
   id="path4153"
   d="m 192,92 c -13.531,0 -25.664,8.574 -30.172,21.332 -1.477,4.164 0.703,8.738 4.875,10.211 2.733,0.982 5.594,0.241 7.695,-1.501 L 208,162.393 V 172 c 0,4.418 3.578,8 8,8 4.422,0 8,-3.582 8,-8 v -48 c 0,-17.645 -14.352,-32 -32,-32 z"
   style="fill:#b9bbc1" />
	</g>
	<g
   id="g4159">
		<path
   inkscape:connector-curvature="0"
   id="path4157"
   d="m 168,108 c -14.664,0 -28.523,5.629 -39.328,16.176 L 26.102,236.152 37.899,246.957 40.67,243.93 208,289.806 V 292 c 0,4.418 3.578,8 8,8 4.422,0 8,-3.582 8,-8 V 164 c 0,-30.879 -25.125,-56 -56,-56 z"
   style="fill:#8b8996" />
	</g>
	<g
   id="g4163">
		<path
   inkscape:connector-curvature="0"
   id="path4161"
   d="m 320,92 c 13.531,0 25.664,8.574 30.172,21.332 1.477,4.164 -0.703,8.738 -4.875,10.211 -2.733,0.982 -5.594,0.241 -7.695,-1.501 L 304,162.393 V 172 c 0,4.418 -3.578,8 -8,8 -4.422,0 -8,-3.582 -8,-8 v -48 c 0,-17.645 14.351,-32 32,-32 z"
   style="fill:#b9bbc1" />
	</g>
	<g
   id="g4167">
		<path
   inkscape:connector-curvature="0"
   id="path4165"
   d="m 344,108 c 14.664,0 28.523,5.629 39.328,16.176 l 102.57,111.977 -11.797,10.805 -2.771,-3.027 L 304,289.806 V 292 c 0,4.418 -3.578,8 -8,8 -4.422,0 -8,-3.582 -8,-8 V 164 c 0,-30.879 25.125,-56 56,-56 z"
   style="fill:#8b8996" />
	</g>
	<g
   id="g4171">
		<circle
   id="circle4169"
   r="88"
   cy="308"
   cx="112"
   style="fill:#53dcff" />
	</g>
	<g
   id="g4175">
		<path
   inkscape:connector-curvature="0"
   id="path4173"
   d="M 112,196 C 50.242,196 0,246.242 0,308 c 0,61.758 50.242,112 112,112 61.758,0 112,-50.242 112,-112 0,-61.758 -50.242,-112 -112,-112 z m 0,192 c -44.111,0 -80,-35.889 -80,-80 0,-44.111 35.889,-80 80,-80 44.111,0 80,35.889 80,80 0,44.111 -35.889,80 -80,80 z"
   style="fill:#5c546a" />
	</g>
	<g
   id="g4179">
		<path
   inkscape:connector-curvature="0"
   id="path4177"
   d="m 192,204 h 128 l 1.23,-0.017 C 305.661,219.23 296,240.487 296,264 v 28 h -80 v -28 c 0,-23.513 -9.661,-44.77 -25.23,-60.017"
   style="fill:#5c546a" />
	</g>
	<g
   id="g4183">
		<circle
   id="circle4181"
   r="32"
   cy="292"
   cx="128"
   style="fill:#ffffff" />
	</g>
	<g
   id="g4187">
		<circle
   id="circle4185"
   r="88"
   cy="308"
   cx="400"
   style="fill:#53dcff" />
	</g>
	<g
   id="g4191">
		<path
   inkscape:connector-curvature="0"
   id="path4189"
   d="m 400,196 c -61.758,0 -112,50.242 -112,112 0,61.758 50.242,112 112,112 61.758,0 112,-50.242 112,-112 0,-61.758 -50.242,-112 -112,-112 z m 0,192 c -44.111,0 -80,-35.889 -80,-80 0,-44.111 35.889,-80 80,-80 44.111,0 80,35.889 80,80 0,44.111 -35.889,80 -80,80 z"
   style="fill:#5c546a" />
	</g>
	<g
   id="g4195">
		<circle
   id="circle4193"
   r="32"
   cy="292"
   cx="416"
   style="fill:#ffffff" />
	</g>
	<g
   id="g4199">
		<rect
   id="rect4197"
   height="16"
   width="128"
   style="fill:#8b8996"
   y="188"
   x="192" />
	</g>
</g><path
     inkscape:connector-curvature="0"
     id="path4203"
     d="M 154.95271,502.96055 C 108.48274,490.78504 70.862306,459.23328 50.231446,415.1322 25.352831,361.951 31.417093,301.61626 66.596005,252.31743 111.27118,189.71078 199.58637,169.5607 269.61877,205.99555 c 28.51471,14.83499 54.41538,41.32579 69.51986,71.10382 l 6.18947,12.20232 0.0276,-8.8733 c 0.0677,-21.87415 -12.3758,-54.70303 -27.37827,-72.23004 l -7.15394,-8.35777 21.07646,-0.97772 c 11.59205,-0.53774 52.70925,-1.2381 91.37154,-1.55634 l 70.29511,-0.57863 -6.50145,8.3208 c -15.83397,20.26497 -24.03655,40.50327 -26.45387,65.26995 -0.84434,8.65085 -1.29813,15.72882 -1.0084,15.72882 0.28972,0 4.05511,-6.71447 8.36753,-14.92104 37.73553,-71.8108 122.46496,-104.05646 198.36733,-75.49307 32.10898,12.08317 56.76596,31.5352 76.05483,60.00008 30.25961,44.65454 36.26328,100.97099 16.06367,150.68255 -13.78148,33.91642 -44.36211,66.45634 -77.61054,82.58301 -25.388,12.31408 -42.37707,16.20298 -70.78455,16.20298 -28.5725,0 -45.39836,-3.88953 -71.4107,-16.50759 -17.40789,-8.44421 -23.34112,-12.84259 -40.13615,-29.75341 -10.83965,-10.91441 -22.95021,-25.37533 -26.91235,-32.1354 C 456.975,401.74952 448.50378,367.16839 449.88534,338.0541 l 0.7181,-15.13506 -47.77053,0.005 -47.77054,0.005 -0.10608,24.40678 c -0.20003,45.98866 -14.70575,80.67628 -47.45234,113.47274 -16.51935,16.54454 -22.86266,21.23971 -40.2225,29.77182 -11.33559,5.57128 -26.95593,11.60598 -34.71187,13.41046 -20.07154,4.66978 -57.77192,4.16946 -77.61678,-1.03006 z m 66.54562,-42.35025 c 41.45923,-9.7728 75.20059,-42.95992 85.85256,-84.44238 10.03012,-39.06074 -1.17441,-79.34783 -30.25953,-108.80142 -30.58459,-30.97205 -69.09463,-41.856 -110.56704,-31.24914 -43.20602,11.05024 -75.582119,44.90903 -84.87857,88.76569 -3.839865,18.11483 -3.821796,27.95893 0.08517,46.39692 4.747323,22.40384 15.242349,41.71162 31.50173,57.95393 29.25924,29.22854 68.78374,40.68311 108.26568,31.3764 z m 414.37289,-2.16949 c 40.76696,-9.60961 74.23761,-41.48005 85.86285,-81.75776 4.70583,-16.3041 4.73008,-45.56388 0.0512,-61.77292 -13.81881,-47.87301 -54.69995,-81.12415 -104.01846,-84.60461 -54.00105,-3.81091 -103.65943,31.13111 -119.30021,83.94533 -4.6244,15.61522 -4.63839,47.22308 -0.0278,62.91525 17.43369,59.33642 78.15728,95.2471 137.4325,81.27471 z"
     style="fill:#545454;stroke-width:2.16949153" /><path
     inkscape:connector-curvature="0"
     id="path4205"
     d="M 155.33433,503.17663 C 86.520871,484.60088 39.241357,426.16836 35.821368,355.47119 33.566974,308.86889 48.925265,268.65911 81.789831,235.12043 99.443938,217.1042 120.2505,204.09862 144.70508,195.79391 c 34.38614,-11.67743 82.1004,-9.34124 115.28071,5.64438 31.65915,14.2986 60.74305,41.34234 76.39164,71.033 l 8.87055,16.8304 0.0356,-8.67796 c 0.0863,-21.14583 -12.0888,-53.25405 -27.2985,-71.99094 l -7.36718,-9.07568 22.264,-0.71821 c 12.24519,-0.39502 53.34818,-1.00438 91.33997,-1.35413 l 69.07596,-0.63592 -7.76856,10.17416 c -14.88047,19.48838 -25.23121,47.56734 -25.10015,68.09043 l 0.0629,9.84927 7.5617,-14.17189 c 21.2429,-39.81268 58.28467,-68.93559 102.2147,-80.36307 22.87358,-5.95008 56.36838,-5.9895 79.13784,-0.0931 90.26337,23.37455 141.90987,118.17514 112.51836,206.53489 -7.21464,21.68938 -20.74357,42.63313 -39.9486,61.84329 -18.98381,18.98886 -37.0048,30.35196 -62.68918,39.52852 -14.02192,5.00977 -18.88791,5.58657 -48.14097,5.70657 -36.52892,0.14991 -48.73628,-2.64524 -78.10169,-17.88258 -18.18891,-9.438 -50.40868,-40.57357 -61.44172,-59.37421 C 457.34903,402.403 449.56622,371.73752 449.53502,339.7424 l -0.0164,-16.81356 h -47.31159 -47.3116 l -0.1779,24.40678 c -0.27548,37.81233 -8.56292,63.6915 -30.14674,94.13906 -18.49161,26.08549 -45.35732,46.14413 -77.54071,57.89392 -15.73319,5.74401 -20.99134,6.55136 -47.00307,7.21699 -23.76924,0.60824 -32.1909,-0.0341 -44.69278,-3.40893 z m 66.18579,-42.57141 c 40.55025,-9.55836 75.20588,-43.8285 85.9205,-84.96469 16.78807,-64.45379 -29.25008,-132.37277 -96.35739,-142.15376 -74.38011,-10.84101 -141.348283,55.45476 -130.729338,129.41675 4.585411,31.93784 22.259378,60.91876 48.306758,79.21113 27.95596,19.6327 60.51203,26.1154 92.85947,18.49057 z m 414.0547,-2.09527 c 41.92944,-9.88585 79.03775,-46.96973 87.42409,-87.36651 3.65861,-17.62345 1.55253,-50.68625 -4.17681,-65.57056 -13.63248,-35.41587 -46.22436,-63.93954 -82.95088,-72.59674 -39.58179,-9.33024 -80.4592,3.19385 -108.77486,33.32664 -22.95816,24.43148 -32.01839,46.90088 -32.01839,79.40569 0,32.50482 9.06023,54.9742 32.01839,79.40569 28.10548,29.90913 69.37711,42.61487 108.47846,33.39579 z"
     style="fill:#404040;stroke-width:2.16949153" /><path
     inkscape:connector-curvature="0"
     id="path4207"
     d="m 461.56594,271.94576 c 2.97342,-24.61037 11.51546,-46.06795 25.77701,-64.75159 4.25426,-5.57338 7.73502,-10.44906 7.73502,-10.83486 0,-0.76566 -185.18274,0.83388 -185.98139,1.60644 -0.26942,0.26062 3.53292,5.78562 8.44966,12.27778 14.23432,18.79534 25.59393,47.10457 25.6297,63.87172 0.013,5.83142 -0.92394,4.92868 -9.00133,-8.67796 -4.97783,-8.38535 -16.95488,-23.08287 -26.74405,-32.81871 -14.89501,-14.81387 -21.3413,-19.40007 -40.32885,-28.69187 -51.68014,-25.29032 -107.3849,-23.44032 -154.85179,5.14276 -6.9676,4.19566 -12.882689,7.36771 -13.144655,7.049 C 97.569913,214.2505 222.5475,79.839052 231.28542,73.960764 263.1138,52.548763 305.75909,57.439378 332.34536,85.550442 349.37442,103.55616 352.52391,112.62183 353.589,146.69934 l 0.89975,28.78748 46.97258,-0.58409 46.97257,-0.58409 0.20458,-26.03389 c 0.24689,-31.41549 4.56244,-44.95736 19.68861,-61.781313 18.06675,-20.09457 42.22807,-29.888595 67.14959,-27.219727 14.95805,1.601871 35.13832,10.394286 45.64779,19.888455 11.81974,10.677839 120.46299,129.088965 119.40812,130.143835 -0.55153,0.55153 -7.22139,-2.38403 -14.82192,-6.52348 -25.24514,-13.74915 -42.26133,-17.63833 -76.7344,-17.53821 -27.45656,0.0797 -32.03935,0.66639 -47.72881,6.10983 -9.54577,3.3119 -23.7017,9.52731 -31.45763,13.81202 -19.61583,10.83664 -50.89885,42.62001 -61.44783,62.43062 l -8.08663,15.18644 z"
     style="fill:#777777;stroke-width:2.16949153" /><path
     inkscape:connector-curvature="0"
     id="path4209"
     d="M 349.07043,108.22332 C 344.2867,94.708886 324.93925,74.238922 310.33634,67.241938 c -5.55365,-2.661035 -16.29264,-5.943855 -23.8644,-7.295158 -7.57177,-1.3513 -14.16765,-2.767841 -14.65751,-3.147867 -1.81161,-1.40542 7.64778,-9.98414 15.33564,-13.907888 18.21596,-9.29711 37.34879,-7.132389 51.7207,5.851769 12.37437,11.179493 15.48374,21.341237 14.73243,48.147053 l -0.62693,22.367813 z"
     style="fill:#9e9e9e;stroke-width:2.16949153" /><path
     inkscape:connector-curvature="0"
     id="path4211"
     d="m 447.49428,101.49207 c -0.17666,-27.910359 3.44285,-41.785153 13.35475,-51.193106 10.31709,-9.792552 19.52174,-13.743032 32.02139,-13.743032 13.74066,0 23.00328,3.777119 32.49147,13.249396 l 7.37313,7.360774 -12.93755,1.254165 c -31.78114,3.080863 -59.63678,25.935015 -69.30092,56.857923 -2.77152,8.86819 -2.86149,8.45508 -3.00227,-13.78612 z"
     style="fill:#9e9e9e;stroke-width:2.16949153" /></g><g
   transform="matrix(0.44931929,0,0,0.44931929,323.54105,26.043948)"
   id="g4275"><g
     id="g4263"
     transform="matrix(1.4407586,-0.00806922,0.00806922,1.4407586,31.303205,-94.847917)"
     style="display:inline">
	<g
   id="g4217">
		<path
   style="fill:#b9bbc1"
   d="m 192,92 c -13.531,0 -25.664,8.574 -30.172,21.332 -1.477,4.164 0.703,8.738 4.875,10.211 2.733,0.982 5.594,0.241 7.695,-1.501 L 208,162.393 V 172 c 0,4.418 3.578,8 8,8 4.422,0 8,-3.582 8,-8 v -48 c 0,-17.645 -14.352,-32 -32,-32 z"
   id="path4215"
   inkscape:connector-curvature="0" />
	</g>
	<g
   id="g4221">
		<path
   style="fill:#8b8996"
   d="m 168,108 c -14.664,0 -28.523,5.629 -39.328,16.176 L 26.102,236.152 37.899,246.957 40.67,243.93 208,289.806 V 292 c 0,4.418 3.578,8 8,8 4.422,0 8,-3.582 8,-8 V 164 c 0,-30.879 -25.125,-56 -56,-56 z"
   id="path4219"
   inkscape:connector-curvature="0" />
	</g>
	<g
   id="g4225">
		<path
   style="fill:#b9bbc1"
   d="m 320,92 c 13.531,0 25.664,8.574 30.172,21.332 1.477,4.164 -0.703,8.738 -4.875,10.211 -2.733,0.982 -5.594,0.241 -7.695,-1.501 L 304,162.393 V 172 c 0,4.418 -3.578,8 -8,8 -4.422,0 -8,-3.582 -8,-8 v -48 c 0,-17.645 14.351,-32 32,-32 z"
   id="path4223"
   inkscape:connector-curvature="0" />
	</g>
	<g
   id="g4229">
		<path
   style="fill:#8b8996"
   d="m 344,108 c 14.664,0 28.523,5.629 39.328,16.176 l 102.57,111.977 -11.797,10.805 -2.771,-3.027 L 304,289.806 V 292 c 0,4.418 -3.578,8 -8,8 -4.422,0 -8,-3.582 -8,-8 V 164 c 0,-30.879 25.125,-56 56,-56 z"
   id="path4227"
   inkscape:connector-curvature="0" />
	</g>
	<g
   id="g4233">
		<circle
   style="fill:#53dcff"
   cx="112"
   cy="308"
   r="88"
   id="circle4231" />
	</g>
	<g
   id="g4237">
		<path
   style="fill:#5c546a"
   d="M 112,196 C 50.242,196 0,246.242 0,308 c 0,61.758 50.242,112 112,112 61.758,0 112,-50.242 112,-112 0,-61.758 -50.242,-112 -112,-112 z m 0,192 c -44.111,0 -80,-35.889 -80,-80 0,-44.111 35.889,-80 80,-80 44.111,0 80,35.889 80,80 0,44.111 -35.889,80 -80,80 z"
   id="path4235"
   inkscape:connector-curvature="0" />
	</g>
	<g
   id="g4241">
		<path
   style="fill:#5c546a"
   d="m 192,204 h 128 l 1.23,-0.017 C 305.661,219.23 296,240.487 296,264 v 28 h -80 v -28 c 0,-23.513 -9.661,-44.77 -25.23,-60.017"
   id="path4239"
   inkscape:connector-curvature="0" />
	</g>
	<g
   id="g4245">
		<circle
   style="fill:#ffffff"
   cx="128"
   cy="292"
   r="32"
   id="circle4243" />
	</g>
	<g
   id="g4249">
		<circle
   style="fill:#53dcff"
   cx="400"
   cy="308"
   r="88"
   id="circle4247" />
	</g>
	<g
   id="g4253">
		<path
   style="fill:#5c546a"
   d="m 400,196 c -61.758,0 -112,50.242 -112,112 0,61.758 50.242,112 112,112 61.758,0 112,-50.242 112,-112 0,-61.758 -50.242,-112 -112,-112 z m 0,192 c -44.111,0 -80,-35.889 -80,-80 0,-44.111 35.889,-80 80,-80 44.111,0 80,35.889 80,80 0,44.111 -35.889,80 -80,80 z"
   id="path4251"
   inkscape:connector-curvature="0" />
	</g>
	<g
   id="g4257">
		<circle
   style="fill:#ffffff"
   cx="416"
   cy="292"
   r="32"
   id="circle4255" />
	</g>
	<g
   id="g4261">
		<rect
   x="192"
   y="188"
   style="fill:#8b8996"
   width="128"
   height="16"
   id="rect4259" />
	</g>
</g><path
     style="fill:#545454;stroke-width:2.16949153"
     d="M 154.95271,502.96055 C 108.48274,490.78504 70.862306,459.23328 50.231446,415.1322 25.352831,361.951 31.417093,301.61626 66.596005,252.31743 111.27118,189.71078 199.58637,169.5607 269.61877,205.99555 c 28.51471,14.83499 54.41538,41.32579 69.51986,71.10382 l 6.18947,12.20232 0.0276,-8.8733 c 0.0677,-21.87415 -12.3758,-54.70303 -27.37827,-72.23004 l -7.15394,-8.35777 21.07646,-0.97772 c 11.59205,-0.53774 52.70925,-1.2381 91.37154,-1.55634 l 70.29511,-0.57863 -6.50145,8.3208 c -15.83397,20.26497 -24.03655,40.50327 -26.45387,65.26995 -0.84434,8.65085 -1.29813,15.72882 -1.0084,15.72882 0.28972,0 4.05511,-6.71447 8.36753,-14.92104 37.73553,-71.8108 122.46496,-104.05646 198.36733,-75.49307 32.10898,12.08317 56.76596,31.5352 76.05483,60.00008 30.25961,44.65454 36.26328,100.97099 16.06367,150.68255 -13.78148,33.91642 -44.36211,66.45634 -77.61054,82.58301 -25.388,12.31408 -42.37707,16.20298 -70.78455,16.20298 -28.5725,0 -45.39836,-3.88953 -71.4107,-16.50759 -17.40789,-8.44421 -23.34112,-12.84259 -40.13615,-29.75341 -10.83965,-10.91441 -22.95021,-25.37533 -26.91235,-32.1354 C 456.975,401.74952 448.50378,367.16839 449.88534,338.0541 l 0.7181,-15.13506 -47.77053,0.005 -47.77054,0.005 -0.10608,24.40678 c -0.20003,45.98866 -14.70575,80.67628 -47.45234,113.47274 -16.51935,16.54454 -22.86266,21.23971 -40.2225,29.77182 -11.33559,5.57128 -26.95593,11.60598 -34.71187,13.41046 -20.07154,4.66978 -57.77192,4.16946 -77.61678,-1.03006 z m 66.54562,-42.35025 c 41.45923,-9.7728 75.20059,-42.95992 85.85256,-84.44238 10.03012,-39.06074 -1.17441,-79.34783 -30.25953,-108.80142 -30.58459,-30.97205 -69.09463,-41.856 -110.56704,-31.24914 -43.20602,11.05024 -75.582119,44.90903 -84.87857,88.76569 -3.839865,18.11483 -3.821796,27.95893 0.08517,46.39692 4.747323,22.40384 15.242349,41.71162 31.50173,57.95393 29.25924,29.22854 68.78374,40.68311 108.26568,31.3764 z m 414.37289,-2.16949 c 40.76696,-9.60961 74.23761,-41.48005 85.86285,-81.75776 4.70583,-16.3041 4.73008,-45.56388 0.0512,-61.77292 -13.81881,-47.87301 -54.69995,-81.12415 -104.01846,-84.60461 -54.00105,-3.81091 -103.65943,31.13111 -119.30021,83.94533 -4.6244,15.61522 -4.63839,47.22308 -0.0278,62.91525 17.43369,59.33642 78.15728,95.2471 137.4325,81.27471 z"
     id="path4265"
     inkscape:connector-curvature="0" /><path
     style="fill:#404040;stroke-width:2.16949153"
     d="M 155.33433,503.17663 C 86.520871,484.60088 39.241357,426.16836 35.821368,355.47119 33.566974,308.86889 48.925265,268.65911 81.789831,235.12043 99.443938,217.1042 120.2505,204.09862 144.70508,195.79391 c 34.38614,-11.67743 82.1004,-9.34124 115.28071,5.64438 31.65915,14.2986 60.74305,41.34234 76.39164,71.033 l 8.87055,16.8304 0.0356,-8.67796 c 0.0863,-21.14583 -12.0888,-53.25405 -27.2985,-71.99094 l -7.36718,-9.07568 22.264,-0.71821 c 12.24519,-0.39502 53.34818,-1.00438 91.33997,-1.35413 l 69.07596,-0.63592 -7.76856,10.17416 c -14.88047,19.48838 -25.23121,47.56734 -25.10015,68.09043 l 0.0629,9.84927 7.5617,-14.17189 c 21.2429,-39.81268 58.28467,-68.93559 102.2147,-80.36307 22.87358,-5.95008 56.36838,-5.9895 79.13784,-0.0931 90.26337,23.37455 141.90987,118.17514 112.51836,206.53489 -7.21464,21.68938 -20.74357,42.63313 -39.9486,61.84329 -18.98381,18.98886 -37.0048,30.35196 -62.68918,39.52852 -14.02192,5.00977 -18.88791,5.58657 -48.14097,5.70657 -36.52892,0.14991 -48.73628,-2.64524 -78.10169,-17.88258 -18.18891,-9.438 -50.40868,-40.57357 -61.44172,-59.37421 C 457.34903,402.403 449.56622,371.73752 449.53502,339.7424 l -0.0164,-16.81356 h -47.31159 -47.3116 l -0.1779,24.40678 c -0.27548,37.81233 -8.56292,63.6915 -30.14674,94.13906 -18.49161,26.08549 -45.35732,46.14413 -77.54071,57.89392 -15.73319,5.74401 -20.99134,6.55136 -47.00307,7.21699 -23.76924,0.60824 -32.1909,-0.0341 -44.69278,-3.40893 z m 66.18579,-42.57141 c 40.55025,-9.55836 75.20588,-43.8285 85.9205,-84.96469 16.78807,-64.45379 -29.25008,-132.37277 -96.35739,-142.15376 -74.38011,-10.84101 -141.348283,55.45476 -130.729338,129.41675 4.585411,31.93784 22.259378,60.91876 48.306758,79.21113 27.95596,19.6327 60.51203,26.1154 92.85947,18.49057 z m 414.0547,-2.09527 c 41.92944,-9.88585 79.03775,-46.96973 87.42409,-87.36651 3.65861,-17.62345 1.55253,-50.68625 -4.17681,-65.57056 -13.63248,-35.41587 -46.22436,-63.93954 -82.95088,-72.59674 -39.58179,-9.33024 -80.4592,3.19385 -108.77486,33.32664 -22.95816,24.43148 -32.01839,46.90088 -32.01839,79.40569 0,32.50482 9.06023,54.9742 32.01839,79.40569 28.10548,29.90913 69.37711,42.61487 108.47846,33.39579 z"
     id="path4267"
     inkscape:connector-curvature="0" /><path
     style="fill:#777777;stroke-width:2.16949153"
     d="m 461.56594,271.94576 c 2.97342,-24.61037 11.51546,-46.06795 25.77701,-64.75159 4.25426,-5.57338 7.73502,-10.44906 7.73502,-10.83486 0,-0.76566 -185.18274,0.83388 -185.98139,1.60644 -0.26942,0.26062 3.53292,5.78562 8.44966,12.27778 14.23432,18.79534 25.59393,47.10457 25.6297,63.87172 0.013,5.83142 -0.92394,4.92868 -9.00133,-8.67796 -4.97783,-8.38535 -16.95488,-23.08287 -26.74405,-32.81871 -14.89501,-14.81387 -21.3413,-19.40007 -40.32885,-28.69187 -51.68014,-25.29032 -107.3849,-23.44032 -154.85179,5.14276 -6.9676,4.19566 -12.882689,7.36771 -13.144655,7.049 C 97.569913,214.2505 222.5475,79.839052 231.28542,73.960764 263.1138,52.548763 305.75909,57.439378 332.34536,85.550442 349.37442,103.55616 352.52391,112.62183 353.589,146.69934 l 0.89975,28.78748 46.97258,-0.58409 46.97257,-0.58409 0.20458,-26.03389 c 0.24689,-31.41549 4.56244,-44.95736 19.68861,-61.781313 18.06675,-20.09457 42.22807,-29.888595 67.14959,-27.219727 14.95805,1.601871 35.13832,10.394286 45.64779,19.888455 11.81974,10.677839 120.46299,129.088965 119.40812,130.143835 -0.55153,0.55153 -7.22139,-2.38403 -14.82192,-6.52348 -25.24514,-13.74915 -42.26133,-17.63833 -76.7344,-17.53821 -27.45656,0.0797 -32.03935,0.66639 -47.72881,6.10983 -9.54577,3.3119 -23.7017,9.52731 -31.45763,13.81202 -19.61583,10.83664 -50.89885,42.62001 -61.44783,62.43062 l -8.08663,15.18644 z"
     id="path4269"
     inkscape:connector-curvature="0" /><path
     style="fill:#9e9e9e;stroke-width:2.16949153"
     d="M 349.07043,108.22332 C 344.2867,94.708886 324.93925,74.238922 310.33634,67.241938 c -5.55365,-2.661035 -16.29264,-5.943855 -23.8644,-7.295158 -7.57177,-1.3513 -14.16765,-2.767841 -14.65751,-3.147867 -1.81161,-1.40542 7.64778,-9.98414 15.33564,-13.907888 18.21596,-9.29711 37.34879,-7.132389 51.7207,5.851769 12.37437,11.179493 15.48374,21.341237 14.73243,48.147053 l -0.62693,22.367813 z"
     id="path4271"
     inkscape:connector-curvature="0" /><path
     style="fill:#9e9e9e;stroke-width:2.16949153"
     d="m 447.49428,101.49207 c -0.17666,-27.910359 3.44285,-41.785153 13.35475,-51.193106 10.31709,-9.792552 19.52174,-13.743032 32.02139,-13.743032 13.74066,0 23.00328,3.777119 32.49147,13.249396 l 7.37313,7.360774 -12.93755,1.254165 c -31.78114,3.080863 -59.63678,25.935015 -69.30092,56.857923 -2.77152,8.86819 -2.86149,8.45508 -3.00227,-13.78612 z"
     id="path4273"
     inkscape:connector-curvature="0" /></g><g
   id="g4337"
   transform="matrix(0.44931929,0,0,0.44931929,651.68156,559.14047)"><g
     style="display:inline"
     transform="matrix(1.4407586,-0.00806922,0.00806922,1.4407586,31.303205,-94.847917)"
     id="g4325">
	<g
   id="g4279">
		<path
   inkscape:connector-curvature="0"
   id="path4277"
   d="m 192,92 c -13.531,0 -25.664,8.574 -30.172,21.332 -1.477,4.164 0.703,8.738 4.875,10.211 2.733,0.982 5.594,0.241 7.695,-1.501 L 208,162.393 V 172 c 0,4.418 3.578,8 8,8 4.422,0 8,-3.582 8,-8 v -48 c 0,-17.645 -14.352,-32 -32,-32 z"
   style="fill:#b9bbc1" />
	</g>
	<g
   id="g4283">
		<path
   inkscape:connector-curvature="0"
   id="path4281"
   d="m 168,108 c -14.664,0 -28.523,5.629 -39.328,16.176 L 26.102,236.152 37.899,246.957 40.67,243.93 208,289.806 V 292 c 0,4.418 3.578,8 8,8 4.422,0 8,-3.582 8,-8 V 164 c 0,-30.879 -25.125,-56 -56,-56 z"
   style="fill:#8b8996" />
	</g>
	<g
   id="g4287">
		<path
   inkscape:connector-curvature="0"
   id="path4285"
   d="m 320,92 c 13.531,0 25.664,8.574 30.172,21.332 1.477,4.164 -0.703,8.738 -4.875,10.211 -2.733,0.982 -5.594,0.241 -7.695,-1.501 L 304,162.393 V 172 c 0,4.418 -3.578,8 -8,8 -4.422,0 -8,-3.582 -8,-8 v -48 c 0,-17.645 14.351,-32 32,-32 z"
   style="fill:#b9bbc1" />
	</g>
	<g
   id="g4291">
		<path
   inkscape:connector-curvature="0"
   id="path4289"
   d="m 344,108 c 14.664,0 28.523,5.629 39.328,16.176 l 102.57,111.977 -11.797,10.805 -2.771,-3.027 L 304,289.806 V 292 c 0,4.418 -3.578,8 -8,8 -4.422,0 -8,-3.582 -8,-8 V 164 c 0,-30.879 25.125,-56 56,-56 z"
   style="fill:#8b8996" />
	</g>
	<g
   id="g4295">
		<circle
   id="circle4293"
   r="88"
   cy="308"
   cx="112"
   style="fill:#53dcff" />
	</g>
	<g
   id="g4299">
		<path
   inkscape:connector-curvature="0"
   id="path4297"
   d="M 112,196 C 50.242,196 0,246.242 0,308 c 0,61.758 50.242,112 112,112 61.758,0 112,-50.242 112,-112 0,-61.758 -50.242,-112 -112,-112 z m 0,192 c -44.111,0 -80,-35.889 -80,-80 0,-44.111 35.889,-80 80,-80 44.111,0 80,35.889 80,80 0,44.111 -35.889,80 -80,80 z"
   style="fill:#5c546a" />
	</g>
	<g
   id="g4303">
		<path
   inkscape:connector-curvature="0"
   id="path4301"
   d="m 192,204 h 128 l 1.23,-0.017 C 305.661,219.23 296,240.487 296,264 v 28 h -80 v -28 c 0,-23.513 -9.661,-44.77 -25.23,-60.017"
   style="fill:#5c546a" />
	</g>
	<g
   id="g4307">
		<circle
   id="circle4305"
   r="32"
   cy="292"
   cx="128"
   style="fill:#ffffff" />
	</g>
	<g
   id="g4311">
		<circle
   id="circle4309"
   r="88"
   cy="308"
   cx="400"
   style="fill:#53dcff" />
	</g>
	<g
   id="g4315">
		<path
   inkscape:connector-curvature="0"
   id="path4313"
   d="m 400,196 c -61.758,0 -112,50.242 -112,112 0,61.758 50.242,112 112,112 61.758,0 112,-50.242 112,-112 0,-61.758 -50.242,-112 -112,-112 z m 0,192 c -44.111,0 -80,-35.889 -80,-80 0,-44.111 35.889,-80 80,-80 44.111,0 80,35.889 80,80 0,44.111 -35.889,80 -80,80 z"
   style="fill:#5c546a" />
	</g>
	<g
   id="g4319">
		<circle
   id="circle4317"
   r="32"
   cy="292"
   cx="416"
   style="fill:#ffffff" />
	</g>
	<g
   id="g4323">
		<rect
   id="rect4321"
   height="16"
   width="128"
   style="fill:#8b8996"
   y="188"
   x="192" />
	</g>
</g><path
     inkscape:connector-curvature="0"
     id="path4327"
     d="M 154.95271,502.96055 C 108.48274,490.78504 70.862306,459.23328 50.231446,415.1322 25.352831,361.951 31.417093,301.61626 66.596005,252.31743 111.27118,189.71078 199.58637,169.5607 269.61877,205.99555 c 28.51471,14.83499 54.41538,41.32579 69.51986,71.10382 l 6.18947,12.20232 0.0276,-8.8733 c 0.0677,-21.87415 -12.3758,-54.70303 -27.37827,-72.23004 l -7.15394,-8.35777 21.07646,-0.97772 c 11.59205,-0.53774 52.70925,-1.2381 91.37154,-1.55634 l 70.29511,-0.57863 -6.50145,8.3208 c -15.83397,20.26497 -24.03655,40.50327 -26.45387,65.26995 -0.84434,8.65085 -1.29813,15.72882 -1.0084,15.72882 0.28972,0 4.05511,-6.71447 8.36753,-14.92104 37.73553,-71.8108 122.46496,-104.05646 198.36733,-75.49307 32.10898,12.08317 56.76596,31.5352 76.05483,60.00008 30.25961,44.65454 36.26328,100.97099 16.06367,150.68255 -13.78148,33.91642 -44.36211,66.45634 -77.61054,82.58301 -25.388,12.31408 -42.37707,16.20298 -70.78455,16.20298 -28.5725,0 -45.39836,-3.88953 -71.4107,-16.50759 -17.40789,-8.44421 -23.34112,-12.84259 -40.13615,-29.75341 -10.83965,-10.91441 -22.95021,-25.37533 -26.91235,-32.1354 C 456.975,401.74952 448.50378,367.16839 449.88534,338.0541 l 0.7181,-15.13506 -47.77053,0.005 -47.77054,0.005 -0.10608,24.40678 c -0.20003,45.98866 -14.70575,80.67628 -47.45234,113.47274 -16.51935,16.54454 -22.86266,21.23971 -40.2225,29.77182 -11.33559,5.57128 -26.95593,11.60598 -34.71187,13.41046 -20.07154,4.66978 -57.77192,4.16946 -77.61678,-1.03006 z m 66.54562,-42.35025 c 41.45923,-9.7728 75.20059,-42.95992 85.85256,-84.44238 10.03012,-39.06074 -1.17441,-79.34783 -30.25953,-108.80142 -30.58459,-30.97205 -69.09463,-41.856 -110.56704,-31.24914 -43.20602,11.05024 -75.582119,44.90903 -84.87857,88.76569 -3.839865,18.11483 -3.821796,27.95893 0.08517,46.39692 4.747323,22.40384 15.242349,41.71162 31.50173,57.95393 29.25924,29.22854 68.78374,40.68311 108.26568,31.3764 z m 414.37289,-2.16949 c 40.76696,-9.60961 74.23761,-41.48005 85.86285,-81.75776 4.70583,-16.3041 4.73008,-45.56388 0.0512,-61.77292 -13.81881,-47.87301 -54.69995,-81.12415 -104.01846,-84.60461 -54.00105,-3.81091 -103.65943,31.13111 -119.30021,83.94533 -4.6244,15.61522 -4.63839,47.22308 -0.0278,62.91525 17.43369,59.33642 78.15728,95.2471 137.4325,81.27471 z"
     style="fill:#545454;stroke-width:2.16949153" /><path
     inkscape:connector-curvature="0"
     id="path4329"
     d="M 155.33433,503.17663 C 86.520871,484.60088 39.241357,426.16836 35.821368,355.47119 33.566974,308.86889 48.925265,268.65911 81.789831,235.12043 99.443938,217.1042 120.2505,204.09862 144.70508,195.79391 c 34.38614,-11.67743 82.1004,-9.34124 115.28071,5.64438 31.65915,14.2986 60.74305,41.34234 76.39164,71.033 l 8.87055,16.8304 0.0356,-8.67796 c 0.0863,-21.14583 -12.0888,-53.25405 -27.2985,-71.99094 l -7.36718,-9.07568 22.264,-0.71821 c 12.24519,-0.39502 53.34818,-1.00438 91.33997,-1.35413 l 69.07596,-0.63592 -7.76856,10.17416 c -14.88047,19.48838 -25.23121,47.56734 -25.10015,68.09043 l 0.0629,9.84927 7.5617,-14.17189 c 21.2429,-39.81268 58.28467,-68.93559 102.2147,-80.36307 22.87358,-5.95008 56.36838,-5.9895 79.13784,-0.0931 90.26337,23.37455 141.90987,118.17514 112.51836,206.53489 -7.21464,21.68938 -20.74357,42.63313 -39.9486,61.84329 -18.98381,18.98886 -37.0048,30.35196 -62.68918,39.52852 -14.02192,5.00977 -18.88791,5.58657 -48.14097,5.70657 -36.52892,0.14991 -48.73628,-2.64524 -78.10169,-17.88258 -18.18891,-9.438 -50.40868,-40.57357 -61.44172,-59.37421 C 457.34903,402.403 449.56622,371.73752 449.53502,339.7424 l -0.0164,-16.81356 h -47.31159 -47.3116 l -0.1779,24.40678 c -0.27548,37.81233 -8.56292,63.6915 -30.14674,94.13906 -18.49161,26.08549 -45.35732,46.14413 -77.54071,57.89392 -15.73319,5.74401 -20.99134,6.55136 -47.00307,7.21699 -23.76924,0.60824 -32.1909,-0.0341 -44.69278,-3.40893 z m 66.18579,-42.57141 c 40.55025,-9.55836 75.20588,-43.8285 85.9205,-84.96469 16.78807,-64.45379 -29.25008,-132.37277 -96.35739,-142.15376 -74.38011,-10.84101 -141.348283,55.45476 -130.729338,129.41675 4.585411,31.93784 22.259378,60.91876 48.306758,79.21113 27.95596,19.6327 60.51203,26.1154 92.85947,18.49057 z m 414.0547,-2.09527 c 41.92944,-9.88585 79.03775,-46.96973 87.42409,-87.36651 3.65861,-17.62345 1.55253,-50.68625 -4.17681,-65.57056 -13.63248,-35.41587 -46.22436,-63.93954 -82.95088,-72.59674 -39.58179,-9.33024 -80.4592,3.19385 -108.77486,33.32664 -22.95816,24.43148 -32.01839,46.90088 -32.01839,79.40569 0,32.50482 9.06023,54.9742 32.01839,79.40569 28.10548,29.90913 69.37711,42.61487 108.47846,33.39579 z"
     style="fill:#404040;stroke-width:2.16949153" /><path
     inkscape:connector-curvature="0"
     id="path4331"
     d="m 461.56594,271.94576 c 2.97342,-24.61037 11.51546,-46.06795 25.77701,-64.75159 4.25426,-5.57338 7.73502,-10.44906 7.73502,-10.83486 0,-0.76566 -185.18274,0.83388 -185.98139,1.60644 -0.26942,0.26062 3.53292,5.78562 8.44966,12.27778 14.23432,18.79534 25.59393,47.10457 25.6297,63.87172 0.013,5.83142 -0.92394,4.92868 -9.00133,-8.67796 -4.97783,-8.38535 -16.95488,-23.08287 -26.74405,-32.81871 -14.89501,-14.81387 -21.3413,-19.40007 -40.32885,-28.69187 -51.68014,-25.29032 -107.3849,-23.44032 -154.85179,5.14276 -6.9676,4.19566 -12.882689,7.36771 -13.144655,7.049 C 97.569913,214.2505 222.5475,79.839052 231.28542,73.960764 263.1138,52.548763 305.75909,57.439378 332.34536,85.550442 349.37442,103.55616 352.52391,112.62183 353.589,146.69934 l 0.89975,28.78748 46.97258,-0.58409 46.97257,-0.58409 0.20458,-26.03389 c 0.24689,-31.41549 4.56244,-44.95736 19.68861,-61.781313 18.06675,-20.09457 42.22807,-29.888595 67.14959,-27.219727 14.95805,1.601871 35.13832,10.394286 45.64779,19.888455 11.81974,10.677839 120.46299,129.088965 119.40812,130.143835 -0.55153,0.55153 -7.22139,-2.38403 -14.82192,-6.52348 -25.24514,-13.74915 -42.26133,-17.63833 -76.7344,-17.53821 -27.45656,0.0797 -32.03935,0.66639 -47.72881,6.10983 -9.54577,3.3119 -23.7017,9.52731 -31.45763,13.81202 -19.61583,10.83664 -50.89885,42.62001 -61.44783,62.43062 l -8.08663,15.18644 z"
     style="fill:#777777;stroke-width:2.16949153" /><path
     inkscape:connector-curvature="0"
     id="path4333"
     d="M 349.07043,108.22332 C 344.2867,94.708886 324.93925,74.238922 310.33634,67.241938 c -5.55365,-2.661035 -16.29264,-5.943855 -23.8644,-7.295158 -7.57177,-1.3513 -14.16765,-2.767841 -14.65751,-3.147867 -1.81161,-1.40542 7.64778,-9.98414 15.33564,-13.907888 18.21596,-9.29711 37.34879,-7.132389 51.7207,5.851769 12.37437,11.179493 15.48374,21.341237 14.73243,48.147053 l -0.62693,22.367813 z"
     style="fill:#9e9e9e;stroke-width:2.16949153" /><path
     inkscape:connector-curvature="0"
     id="path4335"
     d="m 447.49428,101.49207 c -0.17666,-27.910359 3.44285,-41.785153 13.35475,-51.193106 10.31709,-9.792552 19.52174,-13.743032 32.02139,-13.743032 13.74066,0 23.00328,3.777119 32.49147,13.249396 l 7.37313,7.360774 -12.93755,1.254165 c -31.78114,3.080863 -59.63678,25.935015 -69.30092,56.857923 -2.77152,8.86819 -2.86149,8.45508 -3.00227,-13.78612 z"
     style="fill:#9e9e9e;stroke-width:2.16949153" /></g><g
   transform="matrix(0.44931929,0,0,0.44931929,325.34295,398.49187)"
   id="g4399"><g
     id="g4387"
     transform="matrix(1.4407586,-0.00806922,0.00806922,1.4407586,31.303205,-94.847917)"
     style="display:inline">
	<g
   id="g4341">
		<path
   style="fill:#b9bbc1"
   d="m 192,92 c -13.531,0 -25.664,8.574 -30.172,21.332 -1.477,4.164 0.703,8.738 4.875,10.211 2.733,0.982 5.594,0.241 7.695,-1.501 L 208,162.393 V 172 c 0,4.418 3.578,8 8,8 4.422,0 8,-3.582 8,-8 v -48 c 0,-17.645 -14.352,-32 -32,-32 z"
   id="path4339"
   inkscape:connector-curvature="0" />
	</g>
	<g
   id="g4345">
		<path
   style="fill:#8b8996"
   d="m 168,108 c -14.664,0 -28.523,5.629 -39.328,16.176 L 26.102,236.152 37.899,246.957 40.67,243.93 208,289.806 V 292 c 0,4.418 3.578,8 8,8 4.422,0 8,-3.582 8,-8 V 164 c 0,-30.879 -25.125,-56 -56,-56 z"
   id="path4343"
   inkscape:connector-curvature="0" />
	</g>
	<g
   id="g4349">
		<path
   style="fill:#b9bbc1"
   d="m 320,92 c 13.531,0 25.664,8.574 30.172,21.332 1.477,4.164 -0.703,8.738 -4.875,10.211 -2.733,0.982 -5.594,0.241 -7.695,-1.501 L 304,162.393 V 172 c 0,4.418 -3.578,8 -8,8 -4.422,0 -8,-3.582 -8,-8 v -48 c 0,-17.645 14.351,-32 32,-32 z"
   id="path4347"
   inkscape:connector-curvature="0" />
	</g>
	<g
   id="g4353">
		<path
   style="fill:#8b8996"
   d="m 344,108 c 14.664,0 28.523,5.629 39.328,16.176 l 102.57,111.977 -11.797,10.805 -2.771,-3.027 L 304,289.806 V 292 c 0,4.418 -3.578,8 -8,8 -4.422,0 -8,-3.582 -8,-8 V 164 c 0,-30.879 25.125,-56 56,-56 z"
   id="path4351"
   inkscape:connector-curvature="0" />
	</g>
	<g
   id="g4357">
		<circle
   style="fill:#53dcff"
   cx="112"
   cy="308"
   r="88"
   id="circle4355" />
	</g>
	<g
   id="g4361">
		<path
   style="fill:#5c546a"
   d="M 112,196 C 50.242,196 0,246.242 0,308 c 0,61.758 50.242,112 112,112 61.758,0 112,-50.242 112,-112 0,-61.758 -50.242,-112 -112,-112 z m 0,192 c -44.111,0 -80,-35.889 -80,-80 0,-44.111 35.889,-80 80,-80 44.111,0 80,35.889 80,80 0,44.111 -35.889,80 -80,80 z"
   id="path4359"
   inkscape:connector-curvature="0" />
	</g>
	<g
   id="g4365">
		<path
   style="fill:#5c546a"
   d="m 192,204 h 128 l 1.23,-0.017 C 305.661,219.23 296,240.487 296,264 v 28 h -80 v -28 c 0,-23.513 -9.661,-44.77 -25.23,-60.017"
   id="path4363"
   inkscape:connector-curvature="0" />
	</g>
	<g
   id="g4369">
		<circle
   style="fill:#ffffff"
   cx="128"
   cy="292"
   r="32"
   id="circle4367" />
	</g>
	<g
   id="g4373">
		<circle
   style="fill:#53dcff"
   cx="400"
   cy="308"
   r="88"
   id="circle4371" />
	</g>
	<g
   id="g4377">
		<path
   style="fill:#5c546a"
   d="m 400,196 c -61.758,0 -112,50.242 -112,112 0,61.758 50.242,112 112,112 61.758,0 112,-50.242 112,-112 0,-61.758 -50.242,-112 -112,-112 z m 0,192 c -44.111,0 -80,-35.889 -80,-80 0,-44.111 35.889,-80 80,-80 44.111,0 80,35.889 80,80 0,44.111 -35.889,80 -80,80 z"
   id="path4375"
   inkscape:connector-curvature="0" />
	</g>
	<g
   id="g4381">
		<circle
   style="fill:#ffffff"
   cx="416"
   cy="292"
   r="32"
   id="circle4379" />
	</g>
	<g
   id="g4385">
		<rect
   x="192"
   y="188"
   style="fill:#8b8996"
   width="128"
   height="16"
   id="rect4383" />
	</g>
</g><path
     style="fill:#545454;stroke-width:2.16949153"
     d="M 154.95271,502.96055 C 108.48274,490.78504 70.862306,459.23328 50.231446,415.1322 25.352831,361.951 31.417093,301.61626 66.596005,252.31743 111.27118,189.71078 199.58637,169.5607 269.61877,205.99555 c 28.51471,14.83499 54.41538,41.32579 69.51986,71.10382 l 6.18947,12.20232 0.0276,-8.8733 c 0.0677,-21.87415 -12.3758,-54.70303 -27.37827,-72.23004 l -7.15394,-8.35777 21.07646,-0.97772 c 11.59205,-0.53774 52.70925,-1.2381 91.37154,-1.55634 l 70.29511,-0.57863 -6.50145,8.3208 c -15.83397,20.26497 -24.03655,40.50327 -26.45387,65.26995 -0.84434,8.65085 -1.29813,15.72882 -1.0084,15.72882 0.28972,0 4.05511,-6.71447 8.36753,-14.92104 37.73553,-71.8108 122.46496,-104.05646 198.36733,-75.49307 32.10898,12.08317 56.76596,31.5352 76.05483,60.00008 30.25961,44.65454 36.26328,100.97099 16.06367,150.68255 -13.78148,33.91642 -44.36211,66.45634 -77.61054,82.58301 -25.388,12.31408 -42.37707,16.20298 -70.78455,16.20298 -28.5725,0 -45.39836,-3.88953 -71.4107,-16.50759 -17.40789,-8.44421 -23.34112,-12.84259 -40.13615,-29.75341 -10.83965,-10.91441 -22.95021,-25.37533 -26.91235,-32.1354 C 456.975,401.74952 448.50378,367.16839 449.88534,338.0541 l 0.7181,-15.13506 -47.77053,0.005 -47.77054,0.005 -0.10608,24.40678 c -0.20003,45.98866 -14.70575,80.67628 -47.45234,113.47274 -16.51935,16.54454 -22.86266,21.23971 -40.2225,29.77182 -11.33559,5.57128 -26.95593,11.60598 -34.71187,13.41046 -20.07154,4.66978 -57.77192,4.16946 -77.61678,-1.03006 z m 66.54562,-42.35025 c 41.45923,-9.7728 75.20059,-42.95992 85.85256,-84.44238 10.03012,-39.06074 -1.17441,-79.34783 -30.25953,-108.80142 -30.58459,-30.97205 -69.09463,-41.856 -110.56704,-31.24914 -43.20602,11.05024 -75.582119,44.90903 -84.87857,88.76569 -3.839865,18.11483 -3.821796,27.95893 0.08517,46.39692 4.747323,22.40384 15.242349,41.71162 31.50173,57.95393 29.25924,29.22854 68.78374,40.68311 108.26568,31.3764 z m 414.37289,-2.16949 c 40.76696,-9.60961 74.23761,-41.48005 85.86285,-81.75776 4.70583,-16.3041 4.73008,-45.56388 0.0512,-61.77292 -13.81881,-47.87301 -54.69995,-81.12415 -104.01846,-84.60461 -54.00105,-3.81091 -103.65943,31.13111 -119.30021,83.94533 -4.6244,15.61522 -4.63839,47.22308 -0.0278,62.91525 17.43369,59.33642 78.15728,95.2471 137.4325,81.27471 z"
     id="path4389"
     inkscape:connector-curvature="0" /><path
     style="fill:#404040;stroke-width:2.16949153"
     d="M 155.33433,503.17663 C 86.520871,484.60088 39.241357,426.16836 35.821368,355.47119 33.566974,308.86889 48.925265,268.65911 81.789831,235.12043 99.443938,217.1042 120.2505,204.09862 144.70508,195.79391 c 34.38614,-11.67743 82.1004,-9.34124 115.28071,5.64438 31.65915,14.2986 60.74305,41.34234 76.39164,71.033 l 8.87055,16.8304 0.0356,-8.67796 c 0.0863,-21.14583 -12.0888,-53.25405 -27.2985,-71.99094 l -7.36718,-9.07568 22.264,-0.71821 c 12.24519,-0.39502 53.34818,-1.00438 91.33997,-1.35413 l 69.07596,-0.63592 -7.76856,10.17416 c -14.88047,19.48838 -25.23121,47.56734 -25.10015,68.09043 l 0.0629,9.84927 7.5617,-14.17189 c 21.2429,-39.81268 58.28467,-68.93559 102.2147,-80.36307 22.87358,-5.95008 56.36838,-5.9895 79.13784,-0.0931 90.26337,23.37455 141.90987,118.17514 112.51836,206.53489 -7.21464,21.68938 -20.74357,42.63313 -39.9486,61.84329 -18.98381,18.98886 -37.0048,30.35196 -62.68918,39.52852 -14.02192,5.00977 -18.88791,5.58657 -48.14097,5.70657 -36.52892,0.14991 -48.73628,-2.64524 -78.10169,-17.88258 -18.18891,-9.438 -50.40868,-40.57357 -61.44172,-59.37421 C 457.34903,402.403 449.56622,371.73752 449.53502,339.7424 l -0.0164,-16.81356 h -47.31159 -47.3116 l -0.1779,24.40678 c -0.27548,37.81233 -8.56292,63.6915 -30.14674,94.13906 -18.49161,26.08549 -45.35732,46.14413 -77.54071,57.89392 -15.73319,5.74401 -20.99134,6.55136 -47.00307,7.21699 -23.76924,0.60824 -32.1909,-0.0341 -44.69278,-3.40893 z m 66.18579,-42.57141 c 40.55025,-9.55836 75.20588,-43.8285 85.9205,-84.96469 16.78807,-64.45379 -29.25008,-132.37277 -96.35739,-142.15376 -74.38011,-10.84101 -141.348283,55.45476 -130.729338,129.41675 4.585411,31.93784 22.259378,60.91876 48.306758,79.21113 27.95596,19.6327 60.51203,26.1154 92.85947,18.49057 z m 414.0547,-2.09527 c 41.92944,-9.88585 79.03775,-46.96973 87.42409,-87.36651 3.65861,-17.62345 1.55253,-50.68625 -4.17681,-65.57056 -13.63248,-35.41587 -46.22436,-63.93954 -82.95088,-72.59674 -39.58179,-9.33024 -80.4592,3.19385 -108.77486,33.32664 -22.95816,24.43148 -32.01839,46.90088 -32.01839,79.40569 0,32.50482 9.06023,54.9742 32.01839,79.40569 28.10548,29.90913 69.37711,42.61487 108.47846,33.39579 z"
     id="path4391"
     inkscape:connector-curvature="0" /><path
     style="fill:#777777;stroke-width:2.16949153"
     d="m 461.56594,271.94576 c 2.97342,-24.61037 11.51546,-46.06795 25.77701,-64.75159 4.25426,-5.57338 7.73502,-10.44906 7.73502,-10.83486 0,-0.76566 -185.18274,0.83388 -185.98139,1.60644 -0.26942,0.26062 3.53292,5.78562 8.44966,12.27778 14.23432,18.79534 25.59393,47.10457 25.6297,63.87172 0.013,5.83142 -0.92394,4.92868 -9.00133,-8.67796 -4.97783,-8.38535 -16.95488,-23.08287 -26.74405,-32.81871 -14.89501,-14.81387 -21.3413,-19.40007 -40.32885,-28.69187 -51.68014,-25.29032 -107.3849,-23.44032 -154.85179,5.14276 -6.9676,4.19566 -12.882689,7.36771 -13.144655,7.049 C 97.569913,214.2505 222.5475,79.839052 231.28542,73.960764 263.1138,52.548763 305.75909,57.439378 332.34536,85.550442 349.37442,103.55616 352.52391,112.62183 353.589,146.69934 l 0.89975,28.78748 46.97258,-0.58409 46.97257,-0.58409 0.20458,-26.03389 c 0.24689,-31.41549 4.56244,-44.95736 19.68861,-61.781313 18.06675,-20.09457 42.22807,-29.888595 67.14959,-27.219727 14.95805,1.601871 35.13832,10.394286 45.64779,19.888455 11.81974,10.677839 120.46299,129.088965 119.40812,130.143835 -0.55153,0.55153 -7.22139,-2.38403 -14.82192,-6.52348 -25.24514,-13.74915 -42.26133,-17.63833 -76.7344,-17.53821 -27.45656,0.0797 -32.03935,0.66639 -47.72881,6.10983 -9.54577,3.3119 -23.7017,9.52731 -31.45763,13.81202 -19.61583,10.83664 -50.89885,42.62001 -61.44783,62.43062 l -8.08663,15.18644 z"
     id="path4393"
     inkscape:connector-curvature="0" /><path
     style="fill:#9e9e9e;stroke-width:2.16949153"
     d="M 349.07043,108.22332 C 344.2867,94.708886 324.93925,74.238922 310.33634,67.241938 c -5.55365,-2.661035 -16.29264,-5.943855 -23.8644,-7.295158 -7.57177,-1.3513 -14.16765,-2.767841 -14.65751,-3.147867 -1.81161,-1.40542 7.64778,-9.98414 15.33564,-13.907888 18.21596,-9.29711 37.34879,-7.132389 51.7207,5.851769 12.37437,11.179493 15.48374,21.341237 14.73243,48.147053 l -0.62693,22.367813 z"
     id="path4395"
     inkscape:connector-curvature="0" /><path
     style="fill:#9e9e9e;stroke-width:2.16949153"
     d="m 447.49428,101.49207 c -0.17666,-27.910359 3.44285,-41.785153 13.35475,-51.193106 10.31709,-9.792552 19.52174,-13.743032 32.02139,-13.743032 13.74066,0 23.00328,3.777119 32.49147,13.249396 l 7.37313,7.360774 -12.93755,1.254165 c -31.78114,3.080863 -59.63678,25.935015 -69.30092,56.857923 -2.77152,8.86819 -2.86149,8.45508 -3.00227,-13.78612 z"
     id="path4397"
     inkscape:connector-curvature="0" /></g><g
   id="g4461"
   transform="matrix(0.44931929,0,0,0.44931929,-7.3921032,191.71338)"><g
     style="display:inline"
     transform="matrix(1.4407586,-0.00806922,0.00806922,1.4407586,31.303205,-94.847917)"
     id="g4449">
	<g
   id="g4403">
		<path
   inkscape:connector-curvature="0"
   id="path4401"
   d="m 192,92 c -13.531,0 -25.664,8.574 -30.172,21.332 -1.477,4.164 0.703,8.738 4.875,10.211 2.733,0.982 5.594,0.241 7.695,-1.501 L 208,162.393 V 172 c 0,4.418 3.578,8 8,8 4.422,0 8,-3.582 8,-8 v -48 c 0,-17.645 -14.352,-32 -32,-32 z"
   style="fill:#b9bbc1" />
	</g>
	<g
   id="g4407">
		<path
   inkscape:connector-curvature="0"
   id="path4405"
   d="m 168,108 c -14.664,0 -28.523,5.629 -39.328,16.176 L 26.102,236.152 37.899,246.957 40.67,243.93 208,289.806 V 292 c 0,4.418 3.578,8 8,8 4.422,0 8,-3.582 8,-8 V 164 c 0,-30.879 -25.125,-56 -56,-56 z"
   style="fill:#8b8996" />
	</g>
	<g
   id="g4411">
		<path
   inkscape:connector-curvature="0"
   id="path4409"
   d="m 320,92 c 13.531,0 25.664,8.574 30.172,21.332 1.477,4.164 -0.703,8.738 -4.875,10.211 -2.733,0.982 -5.594,0.241 -7.695,-1.501 L 304,162.393 V 172 c 0,4.418 -3.578,8 -8,8 -4.422,0 -8,-3.582 -8,-8 v -48 c 0,-17.645 14.351,-32 32,-32 z"
   style="fill:#b9bbc1" />
	</g>
	<g
   id="g4415">
		<path
   inkscape:connector-curvature="0"
   id="path4413"
   d="m 344,108 c 14.664,0 28.523,5.629 39.328,16.176 l 102.57,111.977 -11.797,10.805 -2.771,-3.027 L 304,289.806 V 292 c 0,4.418 -3.578,8 -8,8 -4.422,0 -8,-3.582 -8,-8 V 164 c 0,-30.879 25.125,-56 56,-56 z"
   style="fill:#8b8996" />
	</g>
	<g
   id="g4419">
		<circle
   id="circle4417"
   r="88"
   cy="308"
   cx="112"
   style="fill:#53dcff" />
	</g>
	<g
   id="g4423">
		<path
   inkscape:connector-curvature="0"
   id="path4421"
   d="M 112,196 C 50.242,196 0,246.242 0,308 c 0,61.758 50.242,112 112,112 61.758,0 112,-50.242 112,-112 0,-61.758 -50.242,-112 -112,-112 z m 0,192 c -44.111,0 -80,-35.889 -80,-80 0,-44.111 35.889,-80 80,-80 44.111,0 80,35.889 80,80 0,44.111 -35.889,80 -80,80 z"
   style="fill:#5c546a" />
	</g>
	<g
   id="g4427">
		<path
   inkscape:connector-curvature="0"
   id="path4425"
   d="m 192,204 h 128 l 1.23,-0.017 C 305.661,219.23 296,240.487 296,264 v 28 h -80 v -28 c 0,-23.513 -9.661,-44.77 -25.23,-60.017"
   style="fill:#5c546a" />
	</g>
	<g
   id="g4431">
		<circle
   id="circle4429"
   r="32"
   cy="292"
   cx="128"
   style="fill:#ffffff" />
	</g>
	<g
   id="g4435">
		<circle
   id="circle4433"
   r="88"
   cy="308"
   cx="400"
   style="fill:#53dcff" />
	</g>
	<g
   id="g4439">
		<path
   inkscape:connector-curvature="0"
   id="path4437"
   d="m 400,196 c -61.758,0 -112,50.242 -112,112 0,61.758 50.242,112 112,112 61.758,0 112,-50.242 112,-112 0,-61.758 -50.242,-112 -112,-112 z m 0,192 c -44.111,0 -80,-35.889 -80,-80 0,-44.111 35.889,-80 80,-80 44.111,0 80,35.889 80,80 0,44.111 -35.889,80 -80,80 z"
   style="fill:#5c546a" />
	</g>
	<g
   id="g4443">
		<circle
   id="circle4441"
   r="32"
   cy="292"
   cx="416"
   style="fill:#ffffff" />
	</g>
	<g
   id="g4447">
		<rect
   id="rect4445"
   height="16"
   width="128"
   style="fill:#8b8996"
   y="188"
   x="192" />
	</g>
</g><path
     inkscape:connector-curvature="0"
     id="path4451"
     d="M 154.95271,502.96055 C 108.48274,490.78504 70.862306,459.23328 50.231446,415.1322 25.352831,361.951 31.417093,301.61626 66.596005,252.31743 111.27118,189.71078 199.58637,169.5607 269.61877,205.99555 c 28.51471,14.83499 54.41538,41.32579 69.51986,71.10382 l 6.18947,12.20232 0.0276,-8.8733 c 0.0677,-21.87415 -12.3758,-54.70303 -27.37827,-72.23004 l -7.15394,-8.35777 21.07646,-0.97772 c 11.59205,-0.53774 52.70925,-1.2381 91.37154,-1.55634 l 70.29511,-0.57863 -6.50145,8.3208 c -15.83397,20.26497 -24.03655,40.50327 -26.45387,65.26995 -0.84434,8.65085 -1.29813,15.72882 -1.0084,15.72882 0.28972,0 4.05511,-6.71447 8.36753,-14.92104 37.73553,-71.8108 122.46496,-104.05646 198.36733,-75.49307 32.10898,12.08317 56.76596,31.5352 76.05483,60.00008 30.25961,44.65454 36.26328,100.97099 16.06367,150.68255 -13.78148,33.91642 -44.36211,66.45634 -77.61054,82.58301 -25.388,12.31408 -42.37707,16.20298 -70.78455,16.20298 -28.5725,0 -45.39836,-3.88953 -71.4107,-16.50759 -17.40789,-8.44421 -23.34112,-12.84259 -40.13615,-29.75341 -10.83965,-10.91441 -22.95021,-25.37533 -26.91235,-32.1354 C 456.975,401.74952 448.50378,367.16839 449.88534,338.0541 l 0.7181,-15.13506 -47.77053,0.005 -47.77054,0.005 -0.10608,24.40678 c -0.20003,45.98866 -14.70575,80.67628 -47.45234,113.47274 -16.51935,16.54454 -22.86266,21.23971 -40.2225,29.77182 -11.33559,5.57128 -26.95593,11.60598 -34.71187,13.41046 -20.07154,4.66978 -57.77192,4.16946 -77.61678,-1.03006 z m 66.54562,-42.35025 c 41.45923,-9.7728 75.20059,-42.95992 85.85256,-84.44238 10.03012,-39.06074 -1.17441,-79.34783 -30.25953,-108.80142 -30.58459,-30.97205 -69.09463,-41.856 -110.56704,-31.24914 -43.20602,11.05024 -75.582119,44.90903 -84.87857,88.76569 -3.839865,18.11483 -3.821796,27.95893 0.08517,46.39692 4.747323,22.40384 15.242349,41.71162 31.50173,57.95393 29.25924,29.22854 68.78374,40.68311 108.26568,31.3764 z m 414.37289,-2.16949 c 40.76696,-9.60961 74.23761,-41.48005 85.86285,-81.75776 4.70583,-16.3041 4.73008,-45.56388 0.0512,-61.77292 -13.81881,-47.87301 -54.69995,-81.12415 -104.01846,-84.60461 -54.00105,-3.81091 -103.65943,31.13111 -119.30021,83.94533 -4.6244,15.61522 -4.63839,47.22308 -0.0278,62.91525 17.43369,59.33642 78.15728,95.2471 137.4325,81.27471 z"
     style="fill:#545454;stroke-width:2.16949153" /><path
     inkscape:connector-curvature="0"
     id="path4453"
     d="M 155.33433,503.17663 C 86.520871,484.60088 39.241357,426.16836 35.821368,355.47119 33.566974,308.86889 48.925265,268.65911 81.789831,235.12043 99.443938,217.1042 120.2505,204.09862 144.70508,195.79391 c 34.38614,-11.67743 82.1004,-9.34124 115.28071,5.64438 31.65915,14.2986 60.74305,41.34234 76.39164,71.033 l 8.87055,16.8304 0.0356,-8.67796 c 0.0863,-21.14583 -12.0888,-53.25405 -27.2985,-71.99094 l -7.36718,-9.07568 22.264,-0.71821 c 12.24519,-0.39502 53.34818,-1.00438 91.33997,-1.35413 l 69.07596,-0.63592 -7.76856,10.17416 c -14.88047,19.48838 -25.23121,47.56734 -25.10015,68.09043 l 0.0629,9.84927 7.5617,-14.17189 c 21.2429,-39.81268 58.28467,-68.93559 102.2147,-80.36307 22.87358,-5.95008 56.36838,-5.9895 79.13784,-0.0931 90.26337,23.37455 141.90987,118.17514 112.51836,206.53489 -7.21464,21.68938 -20.74357,42.63313 -39.9486,61.84329 -18.98381,18.98886 -37.0048,30.35196 -62.68918,39.52852 -14.02192,5.00977 -18.88791,5.58657 -48.14097,5.70657 -36.52892,0.14991 -48.73628,-2.64524 -78.10169,-17.88258 -18.18891,-9.438 -50.40868,-40.57357 -61.44172,-59.37421 C 457.34903,402.403 449.56622,371.73752 449.53502,339.7424 l -0.0164,-16.81356 h -47.31159 -47.3116 l -0.1779,24.40678 c -0.27548,37.81233 -8.56292,63.6915 -30.14674,94.13906 -18.49161,26.08549 -45.35732,46.14413 -77.54071,57.89392 -15.73319,5.74401 -20.99134,6.55136 -47.00307,7.21699 -23.76924,0.60824 -32.1909,-0.0341 -44.69278,-3.40893 z m 66.18579,-42.57141 c 40.55025,-9.55836 75.20588,-43.8285 85.9205,-84.96469 16.78807,-64.45379 -29.25008,-132.37277 -96.35739,-142.15376 -74.38011,-10.84101 -141.348283,55.45476 -130.729338,129.41675 4.585411,31.93784 22.259378,60.91876 48.306758,79.21113 27.95596,19.6327 60.51203,26.1154 92.85947,18.49057 z m 414.0547,-2.09527 c 41.92944,-9.88585 79.03775,-46.96973 87.42409,-87.36651 3.65861,-17.62345 1.55253,-50.68625 -4.17681,-65.57056 -13.63248,-35.41587 -46.22436,-63.93954 -82.95088,-72.59674 -39.58179,-9.33024 -80.4592,3.19385 -108.77486,33.32664 -22.95816,24.43148 -32.01839,46.90088 -32.01839,79.40569 0,32.50482 9.06023,54.9742 32.01839,79.40569 28.10548,29.90913 69.37711,42.61487 108.47846,33.39579 z"
     style="fill:#404040;stroke-width:2.16949153" /><path
     inkscape:connector-curvature="0"
     id="path4455"
     d="m 461.56594,271.94576 c 2.97342,-24.61037 11.51546,-46.06795 25.77701,-64.75159 4.25426,-5.57338 7.73502,-10.44906 7.73502,-10.83486 0,-0.76566 -185.18274,0.83388 -185.98139,1.60644 -0.26942,0.26062 3.53292,5.78562 8.44966,12.27778 14.23432,18.79534 25.59393,47.10457 25.6297,63.87172 0.013,5.83142 -0.92394,4.92868 -9.00133,-8.67796 -4.97783,-8.38535 -16.95488,-23.08287 -26.74405,-32.81871 -14.89501,-14.81387 -21.3413,-19.40007 -40.32885,-28.69187 -51.68014,-25.29032 -107.3849,-23.44032 -154.85179,5.14276 -6.9676,4.19566 -12.882689,7.36771 -13.144655,7.049 C 97.569913,214.2505 222.5475,79.839052 231.28542,73.960764 263.1138,52.548763 305.75909,57.439378 332.34536,85.550442 349.37442,103.55616 352.52391,112.62183 353.589,146.69934 l 0.89975,28.78748 46.97258,-0.58409 46.97257,-0.58409 0.20458,-26.03389 c 0.24689,-31.41549 4.56244,-44.95736 19.68861,-61.781313 18.06675,-20.09457 42.22807,-29.888595 67.14959,-27.219727 14.95805,1.601871 35.13832,10.394286 45.64779,19.888455 11.81974,10.677839 120.46299,129.088965 119.40812,130.143835 -0.55153,0.55153 -7.22139,-2.38403 -14.82192,-6.52348 -25.24514,-13.74915 -42.26133,-17.63833 -76.7344,-17.53821 -27.45656,0.0797 -32.03935,0.66639 -47.72881,6.10983 -9.54577,3.3119 -23.7017,9.52731 -31.45763,13.81202 -19.61583,10.83664 -50.89885,42.62001 -61.44783,62.43062 l -8.08663,15.18644 z"
     style="fill:#777777;stroke-width:2.16949153" /><path
     inkscape:connector-curvature="0"
     id="path4457"
     d="M 349.07043,108.22332 C 344.2867,94.708886 324.93925,74.238922 310.33634,67.241938 c -5.55365,-2.661035 -16.29264,-5.943855 -23.8644,-7.295158 -7.57177,-1.3513 -14.16765,-2.767841 -14.65751,-3.147867 -1.81161,-1.40542 7.64778,-9.98414 15.33564,-13.907888 18.21596,-9.29711 37.34879,-7.132389 51.7207,5.851769 12.37437,11.179493 15.48374,21.341237 14.73243,48.147053 l -0.62693,22.367813 z"
     style="fill:#9e9e9e;stroke-width:2.16949153" /><path
     inkscape:connector-curvature="0"
     id="path4459"
     d="m 447.49428,101.49207 c -0.17666,-27.910359 3.44285,-41.785153 13.35475,-51.193106 10.31709,-9.792552 19.52174,-13.743032 32.02139,-13.743032 13.74066,0 23.00328,3.777119 32.49147,13.249396 l 7.37313,7.360774 -12.93755,1.254165 c -31.78114,3.080863 -59.63678,25.935015 -69.30092,56.857923 -2.77152,8.86819 -2.86149,8.45508 -3.00227,-13.78612 z"
     style="fill:#9e9e9e;stroke-width:2.16949153" /></g></svg>