<?xml version="1.0" encoding="UTF-8" standalone="no"?>
<svg
   xmlns:dc="http://purl.org/dc/elements/1.1/"
   xmlns:cc="http://creativecommons.org/ns#"
   xmlns:rdf="http://www.w3.org/1999/02/22-rdf-syntax-ns#"
   xmlns:svg="http://www.w3.org/2000/svg"
   xmlns="http://www.w3.org/2000/svg"
   xmlns:sodipodi="http://sodipodi.sourceforge.net/DTD/sodipodi-0.dtd"
   xmlns:inkscape="http://www.inkscape.org/namespaces/inkscape"
   height="512"
   viewBox="0 0 58 58"
   width="512"
   version="1.1"
   id="svg4204"
   sodipodi:docname="shovel-color.svg"
   inkscape:version="0.92.4 (5da689c313, 2019-01-14)">
  <metadata
     id="metadata4210">
    <rdf:RDF>
      <cc:Work
         rdf:about="">
        <dc:format>image/svg+xml</dc:format>
        <dc:type
           rdf:resource="http://purl.org/dc/dcmitype/StillImage" />
      </cc:Work>
    </rdf:RDF>
  </metadata>
  <defs
     id="defs4208" />
  <sodipodi:namedview
     pagecolor="#ffffff"
     bordercolor="#666666"
     borderopacity="1"
     objecttolerance="10"
     gridtolerance="10"
     guidetolerance="10"
     inkscape:pageopacity="0"
     inkscape:pageshadow="2"
     inkscape:window-width="1920"
     inkscape:window-height="1017"
     id="namedview4206"
     showgrid="false"
     inkscape:zoom="0.4609375"
     inkscape:cx="256"
     inkscape:cy="256"
     inkscape:window-x="1912"
     inkscape:window-y="-8"
     inkscape:window-maximized="1"
     inkscape:current-layer="svg4204" />
  <g
     id="Page-1"
     fill="none"
     fill-rule="evenodd">
    <g
       id="029---Spade"
       fill-rule="nonzero"
       transform="translate(-1)">
      <path
         id="Shape"
         d="m58.12 8.89-8.01-8.01c-1.1751514-1.16986609-3.0748486-1.16986609-4.25 0l-2.7 2.71c-.2006301.19451004-.3278183.45241951-.36.73l-.76 6.86c-.041881.3722507.0867638.7434829.35 1.01l4.42 4.42c.2665171.2632362.6377493.391881 1.01.35l6.86-.76c.2775805-.0321817.53549-.1593699.73-.36l2.71-2.7c1.1698661-1.1751514 1.1698661-3.0748486 0-4.25zm-4.25 2.83-.35.36c-.162383.1604206-.3734118.2624179-.6.29l-3.74.41c-.3019748.0389789-.6049308-.0644695-.82-.28l-1.86-1.86c-.2138848-.2119755-.3173167-.5111894-.28-.81l.41-3.75c.0275821-.22658824.1295794-.43761703.29-.6l.36-.36c.1869842-.18816159.4418383-.29313583.7071011-.29125454.2652628.0018813.5186023.11045976.7028989.30125454l5.18 5.18c.191781.1843911.3001659.4389549.3001659.705s-.1083849.5206089-.3001659.705z"
         fill="#3b97d3" />
      <path
         id="path4190"
         d="m28.1576114 8.61599266h4.954v37.50000004c0 1.1045695-.8954305 2-2 2h-.953c-1.1045695 0-2-.8954305-2-2v-37.50000004z"
         fill="#35495e"
         transform="matrix(.707 .707 -.707 .707 29.03 -13.354)" />
      <path
         id="path4192"
         d="m22.781 39.722 4.378 4.378c.6976791.6960132 1.0897714 1.6410101 1.0897714 2.6265s-.3920923 1.9304868-1.0897714 2.6265l-4.291 4.291c-3.2549736 3.2551556-7.8335835 4.8200063-12.4 4.238l-6.392-.823c-1.11800029-.1382067-1.99879327-1.0189997-2.137-2.137l-.821-6.392c-.58200631-4.5664165.98284439-9.1450264 4.238-12.4l4.291-4.291c.6960132-.6976791 1.6410101-1.0897714 2.6265-1.0897714s1.9304868.3920923 2.6265 1.0897714l4.378 4.378z"
         fill="#95a5a5" />
      <path
         id="path4194"
         d="m27.16 35.34-7.33 7.33c-.3751365.3755541-.8841815.5865733-1.415.5865733s-1.0398635-.2110192-1.415-.5865733l-.67-.67c-.3755541-.3751365-.5865733-.8841815-.5865733-1.415s.2110192-1.0398635.5865733-1.415l7.33-7.33z"
         fill="#3b97d3" />
      <g
         fill="#7f8c8d"
         id="g4200">
        <path
           id="path4196"
           d="m6.032 48.909c-.50317623-.0005184-.92760003-.3748337-.991-.874-.43833394-3.3546605.71147408-6.7220082 3.11-9.108l3.415-3.415c.3923789-.3789722 1.0160848-.3735524 1.4018186.0121814s.3911536 1.0094397.0121814 1.4018186l-3.415 3.415c-1.95887144 1.950087-2.89784437 4.7012038-2.54 7.442.06897251.5474976-.31858403 1.0473829-.866 1.117-.04212407.0054495-.08452841.0084545-.127.009z" />
        <path
           id="path4198"
           d="m12.37 54.048c-.4680785-.0000518-.935683-.029778-1.4-.089-.3565888-.0424885-.6630151-.2729185-.8028071-.603704-.1397919-.3307855-.0914821-.711129.1265669-.996463.2180491-.2853339.5723524-.4318405.9282402-.383833 2.7405785.356792 5.4910742-.5824647 7.441-2.541l3.415-3.414c.3923789-.3789722 1.0160848-.3735524 1.4018186.0121814s.3911536 1.0094397.0121814 1.4018186l-3.415 3.414c-2.0392949 2.052015-4.813996 3.2040902-7.707 3.2z" />
      </g>
    </g>
  </g>
  <path
     style="fill:#ff0000;stroke-width:2.16949153"
     d="m 139.46645,373.6356 c -6.42968,-5.89235 -7.99526,-8.88563 -7.99526,-15.2863 0,-7.38159 2.47148,-10.43069 34.05597,-42.01517 l 34.05597,-34.05597 15.22639,15.22639 15.2264,15.2264 -34.3575,34.11588 c -39.26299,38.9869 -41.65672,40.12767 -56.21197,26.78877 z"
     id="path4212"
     inkscape:connector-curvature="0"
     transform="scale(0.11328125)" />
  <path
     style="fill:#ff0000;stroke-width:2.16949153"
     d="M 389.64255,131.3057 C 361.49814,104.66466 362.14552,106.44281 366.51727,67.78749 l 3.64463,-32.226068 17.478,-17.129864 C 403.07581,3.3031103 406.05138,1.3016949 413.10737,1.3016949 c 4.3942,0 10.62572,1.3794669 13.84782,3.0654818 3.22211,1.6860151 23.04401,20.4792353 44.04867,41.7627133 26.86326,27.21984 38.53245,40.546701 39.34391,44.932916 2.08846,11.288934 -2.0837,19.312844 -18.37038,35.329944 l -15.774,15.5129 -30.93942,3.46073 c -17.01668,1.90341 -32.32808,3.46074 -34.02533,3.46074 -1.69725,0 -11.41549,-7.88464 -21.59609,-17.52142 z m 52.99064,-19.49408 c 18.76513,-2.35142 28.14647,-7.24667 28.14647,-14.687051 0,-5.206235 -50.05833,-54.602535 -55.33434,-54.602535 -11.26806,0 -15.68202,11.070499 -16.1005,40.381088 -0.15102,10.577135 0.3417,11.560722 10.59614,21.152538 5.91498,5.53278 11.55415,10.05959 12.53149,10.05959 0.97733,0 10.04967,-1.03663 20.16074,-2.30363 z"
     id="path4214"
     inkscape:connector-curvature="0"
     transform="scale(0.11328125)" />
  <path
     style="fill:#333333;stroke-width:2.16949153"
     d="m 214.75021,295.23808 -14.00581,-14.13142 84.02629,-84.02628 84.02628,-84.02628 14.63704,14.63703 14.63703,14.63704 -83.49953,83.52066 c -45.92474,45.93636 -84.02062,83.52066 -84.65752,83.52066 -0.63689,0 -7.46059,-6.35913 -15.16378,-14.13141 z"
     id="path4216"
     inkscape:connector-curvature="0"
     transform="scale(0.11328125)" />
  <path
     style="fill:#4d4d4d;stroke-width:2.16949153"
     d="m 213.66288,294.15068 -12.91316,-13.04933 84.02362,-84.02363 84.02363,-84.02362 14.63697,14.63696 14.63696,14.63697 -82.41457,82.43598 C 270.32831,270.10381 231.74197,307.2 229.90889,307.2 c -1.83307,0 -9.14377,-5.8722 -16.24601,-13.04932 z"
     id="path4218"
     inkscape:connector-curvature="0"
     transform="scale(0.11328125)" />
</svg>
