<svg id="Layer_1" enable-background="new 0 0 495.977 495.977" height="512" viewBox="0 0 495.977 495.977" width="512" xmlns="http://www.w3.org/2000/svg"><path d="m442.049 111.138c-15.949 15.949-41.764 15.951-57.716 0-15.912-15.912-15.912-41.803 0-57.715l14.798-14.798 57.716 57.716zm48.577-26.271-80.18-80.18c-6.249-6.249-16.381-6.249-22.63 0l-26.11 26.11c-24.5 24.5-27.84 62.25-10.05 90.39l-156.4 156.4-60.38-60.38c-6.249-6.249-16.381-6.249-22.63 0l-59.73 59.73c-40.35 40.35-58.93 98.06-49.69 154.37l6.92 42.22c1.11 6.78 6.42 12.09 13.2 13.2 45.045 7.394 52.684 9.25 70.82 9.25 46.74 0 92.25-18.49 125.77-52.02l59.74-59.73c6.25-6.25 6.25-16.38 0-22.63l-27.446-27.446c-6.248-6.248-16.379-6.248-22.627 0l-46.196 46.196c-3.13 3.13-7.22 4.69-11.32 4.69-14.112 0-21.424-17.212-11.31-27.31 85.669-85.655 128.235-128.241 213.9-213.9 27.697 17.565 65.48 14.86 90.4-10.06l26.11-26.11c5.949-5.949 6.617-16.013-.161-22.79z"/></svg>