<?xml version="1.0" encoding="utf-8"?>
<!-- Generator: Adobe Illustrator 23.0.1, SVG Export Plug-In . SVG Version: 6.00 Build 0)  -->
<svg version="1.1" id="Layer_1" xmlns="http://www.w3.org/2000/svg" xmlns:xlink="http://www.w3.org/1999/xlink" x="0px" y="0px"
	 viewBox="0 0 612 296" style="enable-background:new 0 0 612 296;" xml:space="preserve">
<style type="text/css">
	.st0{fill:#4E4E4E;}
	.st1{fill:#FE0000;}
	.st2{fill:#FD0000;}
	.st3{fill:#010101;}
	.st4{display:none;fill:#FEFEFE;}
	.st5{fill:#FEFBFB;}
	.st6{fill:#FEFCFC;}
	.st7{fill:#FEF9F9;}
	.st8{fill:#FEFAFA;}
	.st9{fill:#FEF4F5;}
	.st10{fill:#FE0A0A;}
	.st11{fill:#FE0101;}
	.st12{fill:#FE0B0B;}
	.st13{fill:#FE1C1C;}
</style>
<g>
	<path class="st0" d="M156.3,133.72c11.88-17.46,23.76-34.92,35.75-52.54c3.26,0.59,6.46,1.18,9,1.64
		c21.72-12.73,33.81-33.87,49.19-52.28c8.73,7.79,17.3,15.45,26.17,23.37c14.58-13.64,26.52-29.5,40.43-44.02
		c14.11,18.53,28.13,36.93,42.3,55.52c9.55-5.83,18.99-11.6,29.79-18.2c10.14,10.64,19.91,22.05,30.96,32.03
		c7.07,6.39,6.53,14.32,8.13,22.05c0.32,1.54,0.51,3.1,0.75,4.59c12.63,7.91,25.06,15.73,38.01,25.14
		c-12.3-1.64-23.45-3.13-35.46-4.73c3.6-2.26,6.58-4.13,9.91-6.22c-6.69-4.25-13.15-8.35-19.76-12.55
		c-0.89-5.87-1.88-11.77-2.62-17.7c-0.28-2.27-1.18-3.91-2.75-5.54c-9.34-9.65-18.57-19.42-27.83-29.14
		c-0.48,0.36-0.96,0.71-1.44,1.07c-1.12,11.05-2.24,22.1-3.39,33.38c7,3.29,13.92,6.59,20.9,9.77c1.65,0.75,2.69,1.76,3.43,3.43
		c3.49,7.82,7.1,15.59,11.32,24.78c-10.47-7.05-19.8-13.34-29.8-20.08c0.94,7.92-0.88,15.13,0.79,22.6
		c-1.98-0.51-1.78-2.14-2.27-3.18c-5.76-12.15-11.44-24.34-17.17-36.5c-0.48-1.01-1.02-2.04-1.74-2.89
		c-18.11-21.32-34.27-44.16-51.43-66.22c-0.34-0.44-0.72-0.86-1.28-1.53C303,32.66,300.52,50.92,291.84,65.6
		c1.26,3.26,2.81,5.68,4.81,8.14c5.64-7.42,11.15-14.68,17.48-23c-3.62,14.22-11.2,26.15-8.47,40.56
		c-6.73-1.56-9.47-7.18-14.14-10.72c-0.94,1.08-1.94,2.23-3.16,3.63c-1.97-3.09-3.83-6.01-5.65-8.87
		c-5.03-1.83-9.26,0.76-13.42,2.32c-14.2,5.33-28.17,11.22-40.14,20.86c-2.05,1.65-4.06,1.84-6.59,1.18
		c-7.19-1.88-14.45-3.46-22.35-5.32c3.55,8.13,6.86,15.69,10.16,23.24c5.08,0.28,9.91,0.56,15.03,0.84
		c2.94,5.05,5.93,10.2,9.59,16.5c-16.12-7.92-31.93-13.46-47.73-19.18c-10.14,6.18-20.26,12.33-30.38,18.49
		C156.68,134.08,156.49,133.9,156.3,133.72z"/>
	<path class="st1" d="M400.99,189.95c8.43,0,16.68,0,25.31,0c-6.4,24.57-18.64,45.41-37.03,62.55
		c-24.2,22.57-53.13,34.7-86.03,34.96c-72.2,0.56-117.15-52.06-127.2-97.5c8.27,0,16.51,0,24.52,0
		c18.99,47.04,52.81,73.38,104.32,72.73C347.87,262.15,386.6,233.32,400.99,189.95z"/>
	<path class="st2" d="M242.1,145.56c5.42-14.03,11.84-27.46,25.17-35.5c6.13-3.7,12.82-6.48,18.29-11.67
		c1.46,2.64,0.29,4.1-1.33,5.45c-4.06,3.42-8.27,6.67-11.56,10.63c0.69,5.48,3.66,9.49,7.2,13.36c7.85,8.58,15.44,17.41,23.45,26.5
		c3.5-3.92,6.87-7.65,10.17-11.45c0.38-0.44,0.49-1.25,0.48-1.88c-0.06-4.55,1.41-8.72,3.41-12.65
		c5.66-11.13,12.12-21.75,21.39-30.32c5.94-5.5,12-5.62,17.66-0.77c5.82,4.99,6.68,11.07,2.02,17.78
		c-8.69,12.5-19.53,23.17-33.8,28.4c-8.22,3.02-12.43,8.95-17.96,14.71c6.67,7.82,13.21,15.57,19.85,23.23
		c9.04,10.43,17.69,21.2,27.33,31.08c1.8,1.84,2.64,3.79,2.14,6.39c-2.65,0.6-4.38-0.6-6.06-2.56
		c-15.39-17.94-30.85-35.82-46.61-54.09c-15.47,17.47-30.79,34.76-46.16,52.11c0.31,1.4,2.07,2.69-0.03,4.61
		c-4.46,0.67-6.03-3.43-8.56-5.47c0.14-1.84,0.89-2.47,2.08-3.07c0.76,0.19,1.71,0.42,2.96,0.73
		c15.29-17.35,30.67-34.81,46.32-52.58c-10.32-11.7-20.61-23.37-31.63-35.87C257.31,127.58,249.99,136.87,242.1,145.56z"/>
	<path class="st1" d="M313.57,219.52c0.99,0.74,1.69,1.26,2.33,1.74c-1.13,5.78-0.49,11.61-2.09,17.22
		c-0.43,1.51,0.17,3.42,0.63,5.05c0.81,2.89-0.28,4.67-2.95,5.49c-3.69,1.13-7.57,1.96-11.34,1.06c-5.14-1.23-6.46-5.32-6.16-10.2
		c-4.07-2.8-4.92-6.42-2.24-11.46c-5.56-2.28-9.74-6.63-7.19-12.5c1.88-4.33,0.61-12.4,9.62-11.27c-1.29-4.86,1.7-7.33,4.45-9.99
		c3.16-0.54,5.97-0.06,7.93,2.99c1.41-1.46,0.34-3.67,2.12-4.67c5.45-0.82,8.55,2.22,8.9,7.51c0.38,5.79-0.33,11.05-3.6,15.92
		C313.48,217.14,313.7,218.36,313.57,219.52z"/>
	<path class="st3" d="M180.92,151.96c0,9.6,0,19.07,0,28.7c-1.86,0.76-3.87,0.19-5.98,0.31c-3.78-6.5-7.55-13-11.73-20.19
		c0,7.07,0,13.41,0,19.98c-2.04,0-3.78,0-5.78,0c0-9.42,0-18.95,0-28.73c1.97,0,4.05,0,6.34,0c3.6,6.21,7.29,12.59,11.52,19.9
		c0-7.31,0-13.55,0-19.97C177.33,151.96,179.07,151.96,180.92,151.96z"/>
	<path d="M265.97,168.73c-4.65,0-9.13,0-13.81,0c0,2.31,0,4.39,0,6.81c5.21,0,10.47,0,15.86,0c0,1.88,0,3.42,0,5.21
		c-7.26,0-14.54,0-21.99,0c0-9.52,0-19.08,0-28.8c6.99,0,13.96,0,21.12,0c0,1.66,0,3.29,0,5.17c-4.87,0-9.82,0-14.97,0
		c0,2.1,0,3.96,0,6.15c4.47,0,9.05,0,13.79,0C265.97,165.15,265.97,166.7,265.97,168.73z"/>
	<path d="M393.98,172.28c1.78,0,3.46,0,5.32,0c1.73,4.64,5.59,4.32,9.5,3.66c2.18-0.37,3.46-1.6,2.92-4.31
		c-3.37-2.77-7.96-2.36-11.89-3.87c-4.93-1.9-7-6.72-4.69-11.44c1.93-3.93,7.19-6.05,12.65-5.08c5.53,0.97,8.37,3.87,8.86,9.2
		c-1.66,0-3.31,0-5.25,0c-1.78-4.2-5.28-4.57-9.35-3.34c-1.33,0.4-2.09,1.37-2.19,2.72c-0.1,1.51,0.95,2.26,2.21,2.61
		c3.05,0.84,6.14,1.53,9.18,2.38c3.66,1.02,6.37,3.03,6.5,7.21c0.12,4.06-1.82,6.97-5.53,8.5c-4.61,1.9-9.32,1.71-13.76-0.5
		C395.48,178.52,393.72,175.99,393.98,172.28z"/>
	<path d="M239.88,180.91c-1.99,0-3.78,0-5.85,0c0-4.15,0-8.28,0-12.62c-3.94,0-7.59,0-11.44,0c0,4.14,0,8.19,0,12.47
		c-2.03,0-3.87,0-5.94,0c0-9.51,0-19.06,0-28.79c1.78,0,3.65,0,5.82,0c0,3.5,0,6.94,0,10.53c3.87,0,7.44,0,11.31,0
		c0-3.47,0-6.91,0-10.53c2.16,0,4.02,0,6.09,0C239.88,161.51,239.88,171.06,239.88,180.91z"/>
	<path d="M445.79,180.92c-2.05,0-3.84,0-5.91,0c0-4.2,0-8.33,0-12.64c-3.86,0-7.43,0-11.3,0c0,4.05,0,8.18,0,12.51
		c-2.15,0-4.01,0-6.05,0c0-9.56,0-19.11,0-28.83c1.85,0,3.71,0,5.88,0c0,3.55,0,7,0,10.57c3.87,0,7.44,0,11.31,0
		c0-3.52,0-6.97,0-10.57c2.16,0,4.03,0,6.07,0C445.79,161.54,445.79,171.09,445.79,180.92z"/>
	<path d="M211.31,161.21c-2.01,0-3.81,0-5.86,0c-1.61-3.82-4.51-5.63-8.78-4.31c-3.58,1.11-5.5,5.5-4.99,11.2
		c0.35,3.84,1.64,7.25,5.93,8.04c3.97,0.73,6.47-1.33,7.53-5.2c2.03,0,3.92,0,5.81,0c-0.51,6.56-5.55,10.87-12.57,10.74
		c-7.83-0.15-12.72-5.47-13.08-14.24c-0.38-9.19,4.18-15.53,11.72-16.33C204.54,150.31,210.12,154.14,211.31,161.21z"/>
	<path class="st3" d="M54.3,180.86c-3.25-9.56-6.48-19.05-9.81-28.85c2.25,0,4.2,0,6.49,0c2.01,6.91,4.08,14.01,6.36,21.83
		c2.27-7.75,4.32-14.76,6.41-21.89c2.09,0,4.08,0,6.32,0c-3.31,9.66-6.59,19.24-9.9,28.91C58.27,180.86,56.48,180.86,54.3,180.86z"
		/>
	<path d="M123.54,175.56c0,2.07,0,3.62,0,5.27c-6.86,0-13.58,0-20.4,0c0-9.66,0-19.14,0-28.84c1.86,0,3.72,0,5.88,0
		c0,7.8,0,15.55,0,23.56C114.01,175.56,118.71,175.56,123.54,175.56z"/>
	<path class="st4" d="M230.82,83.04c7.24-15.97,13.97-30.84,20.91-46.14c6.53,7.14,12.89,14.1,19.39,21.21
		C260.96,69.2,245.29,74.04,230.82,83.04z"/>
	<path class="st5" d="M343.25,267.04c3.18,1.25,2.57,4.75,4.7,6.83c-1.31,0.42-2.42,0.78-3.68,1.18c-0.87-1.82-1.63-3.41-2.36-4.94
		c-2.18-0.69-3.85,0.31-5.82,1.1c0.54,1.87,1.07,3.68,1.61,5.55c-0.63,1.13-1.76,1.16-3.13,1.41c-1.71-5.08-3.43-10.15-5.31-15.75
		c4.54-0.64,8.33-5.09,13.23-1.9C344.74,261.98,344.86,264.45,343.25,267.04z"/>
	<path class="st5" d="M389.73,220.51c0.69-0.89,1.23-1.57,2.05-2.62c4.41,3.41,8.74,6.75,13.25,10.23
		c-0.71,0.99-1.33,1.86-2.05,2.86c-3.94-0.54-7.82-1.07-12.78-1.74c3.3,2.67,5.89,4.76,8.63,6.98c-0.65,0.84-1.23,1.61-1.99,2.6
		c-4.44-3.43-8.78-6.78-13.31-10.28c0.82-1.07,1.48-1.92,2.25-2.92c3.92,0.54,7.8,1.07,12.59,1.72
		C395.1,224.75,392.5,222.7,389.73,220.51z"/>
	<path class="st5" d="M370.47,247.8c-1.33,0.94-2.09,2.22-3.99,1.42c-2.08-0.88-3.87,0.27-4.83,2.08c-1.43,2.72,0.01,5.02,1.7,7.1
		c1.45,1.8,3.35,2.31,5.47,1.36c2.17-0.97,2.81-2.73,2.23-5.32c-1.11,0.6-2.03,1.1-3.12,1.69c-0.53-0.64-1.07-1.3-1.82-2.2
		c1.99-1.33,3.83-2.56,5.9-3.94c1.71,2.58,3.31,5,4.88,7.37c-0.87,1.14-1.75,1.63-2.87,0.59c-3.13,5.49-7.31,7.08-11.55,4.41
		c-4.51-2.84-6.16-9.13-3.4-12.98C361.88,245.46,366.53,244.7,370.47,247.8z"/>
	<path class="st6" d="M392.31,241.59c-0.03,4.02-4.17,8.07-8.1,7.94c-4.45-0.15-9.32-5.13-9.37-9.59c-0.05-4.09,3.85-7.98,7.99-7.99
		C387.53,231.96,392.34,236.85,392.31,241.59z"/>
	<path class="st5" d="M310.53,274.59c-0.02,5.57-2.94,8.64-8.16,8.58c-4.87-0.06-7.99-3.61-7.93-9.04c0.05-5.28,3.43-8.78,8.36-8.66
		C307.73,265.59,310.55,268.91,310.53,274.59z"/>
	<path class="st5" d="M289.57,275.02c-2.16-0.22-4.02-0.4-6.13-0.62c-0.37,2.34-0.72,4.53-1.08,6.78c-1.12,0.6-2.14,0.11-3.48-0.09
		c0.67-5.51,1.32-10.84,1.97-16.13c1.28-0.48,2.33-0.39,3.44,0.33c-0.15,1.87-0.3,3.76-0.48,5.89c2.06,0.29,4.01,0.56,6.11,0.85
		c0.28-2.08,0.54-3.95,0.81-5.94c1.11,0,2.08,0,3.54,0c-0.68,5.62-1.33,11.04-2.01,16.72c-1.28-0.17-2.24-0.3-3.52-0.47
		C289.01,279.91,289.27,277.62,289.57,275.02z"/>
	<path class="st5" d="M238.42,247.7c-2.9,0.19-5.8,0.38-9.18,0.6c-0.19,4.01-0.37,7.88-0.57,12.24c-1.36-1.02-2.38-1.78-3.48-2.61
		c0.16-2.98,0.32-5.88,0.47-8.81c-3.49-0.45-3.75,3.12-6.07,4.26c-0.76-0.6-1.61-1.28-2.56-2.04c3.51-4.41,6.88-8.64,10.4-13.06
		c0.97,0.72,1.84,1.38,2.79,2.09c-1.17,1.64-2.24,3.16-3.65,5.14c3.22-0.42,5.77-0.75,8.49-1.1c1.2,0.91,2.95,1.41,3.27,3.37
		L238.42,247.7z"/>
	<path class="st5" d="M352.69,268.46c2.86-1.35,5.38-2.54,8.13-3.84c0.45,0.77,0.89,1.5,1.49,2.51c-3.83,1.88-7.54,3.7-11.52,5.64
		c-2.41-4.93-4.76-9.76-7.33-15.02c3.62-1.79,7.19-3.55,10.91-5.39c0.46,0.95,0.83,1.72,1.28,2.66c-2.57,1.28-4.97,2.48-7.35,3.67
		c-0.03,1.28,0.58,2.19,1.28,3.09c2.25-1.05,4.46-2.1,6.84-3.21c0.47,0.82,0.9,1.55,1.46,2.5c-2.43,1.23-4.71,2.38-7.1,3.58
		C351.45,265.98,351.99,267.07,352.69,268.46z"/>
	<path class="st5" d="M322.93,270.42c0.55,1.04,0.69,1.87,0.25,2.87c-2.28,0.39-4.6,0.79-7.06,1.21c0.17,1.26,0.33,2.35,0.54,3.86
		c2.93-0.34,5.79-0.66,8.57-0.98c0.7,0.89,0.89,1.7,0.49,2.89c-3.91,0.58-7.89,1.17-12.17,1.8c-0.82-5.51-1.62-10.84-2.47-16.56
		c4-0.6,7.84-1.18,11.57-1.74c0.96,1.07,0.81,2.01,0.54,3.01c-2.67,0.42-5.21,0.81-7.72,1.2c-0.4,1.19-0.2,2.14,0.36,3.27
		C318.09,270.99,320.41,270.72,322.93,270.42z"/>
	<path class="st5" d="M238.34,247.79c4.56-0.13,6.98,3.97,11.11,5.29c-0.54,0.99-0.94,1.71-1.47,2.68c-2.42-1.43-4.71-2.78-7-4.14
		c-1.13,0.57-1.48,1.61-1.95,2.89c2.03,1.31,4.07,2.62,6.08,3.92c-0.12,1.09-0.63,1.77-1.53,2.36c-1.97-1.18-3.99-2.38-6.05-3.61
		c-1.27,0.88-1.72,2.27-2.39,3.65c2.42,1.5,4.81,2.97,7.25,4.49c0.08,1.14-0.53,1.84-1.42,2.54c-3.45-2.1-6.89-4.19-10.41-6.34
		c2.67-4.7,5.27-9.26,7.86-13.82C238.42,247.7,238.34,247.79,238.34,247.79z"/>
	<path class="st5" d="M206.7,241c-0.68-0.85-1.38-1.72-2.28-2.83c5.34-2.46,10.64-4.9,16.22-7.48c0.87,0.87,1.73,1.74,2.76,2.78
		c-2.72,5.42-5.34,10.62-8.21,16.34c-0.93-1.09-1.62-1.9-2.46-2.87c0.43-0.96,0.88-1.96,1.37-3.05c-0.7-1.8-2.36-2.86-3.8-4.4
		C209.22,239.94,208.11,240.41,206.7,241z"/>
	<path class="st5" d="M271.2,262.26c1.25,0.29,2.22,0.51,3.54,0.81c0.5,5.79,1.01,11.57,1.54,17.7c-1.31-0.31-2.34-0.55-3.42-0.8
		c-0.16-1.23-0.3-2.34-0.46-3.65c-1.74-0.47-3.55-0.96-5.49-1.49c-0.69,0.9-1.37,1.77-2.22,2.87c-0.91-0.19-1.95-0.4-3.48-0.71
		C264.64,271.92,267.84,267.22,271.2,262.26z"/>
	<path class="st7" d="M256.26,274.5c-1.3-0.29-2.39-0.45-3.25-1.49c1.56-4,3.14-8.05,4.78-12.24c-1.47-0.68-2.77-1.29-4.05-1.88
		c-0.36-1.23,0.35-1.91,0.97-2.83c4.1,1.63,8.05,3.2,12.2,4.85c-0.38,0.98-0.69,1.78-1.05,2.73c-1.52-0.49-2.89-0.94-4.6-1.49
		C259.63,266.18,258.01,270.19,256.26,274.5z"/>
	<path class="st8" d="M212.11,220.61c-3.78,2.87-7.18,5.45-10.8,8.2c1.59,2.15,3.1,4.2,4.6,6.24c-0.23,1.24-1.2,1.52-2.3,2.03
		c-2.24-2.93-4.47-5.85-6.99-9.14c4.4-3.36,8.73-6.66,13.25-10.12C210.63,218.77,211.3,219.61,212.11,220.61z"/>
	<path class="st7" d="M378.9,255.48c-3.51-4.36-6.9-8.56-10.24-12.71c0.75-1.2,1.58-1.89,2.85-2.26c3.38,4.2,6.77,8.41,10.29,12.78
		C380.78,254.07,379.92,254.71,378.9,255.48z"/>
	<path class="st9" d="M259.48,120.38c1.23,0.16,2.06,0.83,2.06,2.17c0,1.34-0.79,2.09-2.11,2.13c-1.53,0.04-2.36-0.91-2.3-2.31
		C257.19,121.12,258.09,120.39,259.48,120.38z"/>
	<path d="M471.66,165.63c3.17-2.24,3.88-5.24,2.84-8.72c-0.97-3.26-3.6-4.77-6.62-4.94c-5.37-0.3-10.77-0.08-16.06-0.08
		c0,9.84,0,19.38,0,28.75c5.71,0,11.22,0.19,16.72-0.07c3.8-0.18,6.21-2.62,7.04-6.27C476.43,170.65,475.41,167.58,471.66,165.63z
		 M457.66,157.26c3.74,0.25,7.43-0.93,10.77,0.98c1.13,5-1.11,5.97-10.77,4.8C457.66,161.05,457.66,159.29,457.66,157.26z
		 M457.72,175.37c0-2.05,0-4.12,0-6.58c3.83,0.29,7.72-0.94,11.47,1.18C470.09,175.42,468.24,176.25,457.72,175.37z"/>
	<path d="M562.66,167.38c3.75-2.39,4.81-5.72,3.83-9.51c-0.9-3.48-3.45-5.72-7.07-5.89c-5.49-0.25-11-0.07-16.44-0.07
		c0,9.81,0,19.36,0,28.89c2.07,0,3.93,0,5.95,0c0-3.55,0-6.91,0-10.72c3.4,0.32,6.8-1.09,9.29,0.85c3.11,2.41,0.45,6.77,2.3,9.89
		c2.18,0,4.36,0,6.64,0C564.45,176.6,568.2,170.61,562.66,167.38z M557.01,164.65c-2.55,0.16-5.12,0.04-7.96,0.04
		c0-2.64,0-4.86,0-7.46c2.72,0,5.38-0.12,8.03,0.04c2.18,0.13,3.45,1.4,3.46,3.73C560.55,163.4,559.16,164.51,557.01,164.65z"/>
	<path d="M494.8,151.1c-9.01-0.09-14.36,5.48-14.4,15c-0.04,9.79,5.06,15.54,13.83,15.58c8.94,0.04,14.2-5.56,14.25-15.18
		C508.53,156.99,503.38,151.19,494.8,151.1z M494.46,176.24c-5.05,0-7.99-3.74-7.95-10.08c0.05-6.06,3.09-9.69,8.06-9.63
		c4.87,0.06,7.81,3.81,7.79,9.91C502.34,172.56,499.37,176.24,494.46,176.24z"/>
	<path d="M359.19,157.81c-1.65-3.91-5.01-5.8-9.13-5.98c-4.5-0.2-9.02-0.05-13.73-0.05c0,9.93,0,19.48,0,29.21
		c4.61,0,9.01,0.11,13.41-0.04c3.33-0.11,6.24-1.51,8.06-4.35C361.61,170.65,361.92,164.26,359.19,157.81z M342.22,175.41
		c0-5.91,0-11.83,0-18.02c10.17-0.74,12.43,0.85,12.42,8.61C354.64,173.84,351.79,176.04,342.22,175.41z"/>
	<path d="M594.06,156.45c-5.67-8.1-14.54-3.36-22.08-4.88c0,10.07,0,19.56,0,29.71c7.82-1.57,16.98,3.24,22.26-5.8
		C597.81,169.35,598.21,162.37,594.06,156.45z M588.77,172.68c-2.55,4.33-6.92,2.52-10.81,2.92c0-6.27,0-12.2,0-18.44
		c3.92,0.57,8.5-1.63,11.02,2.58C591.42,163.82,591.21,168.52,588.77,172.68z"/>
	<path d="M89.12,151.84c-2.4,0-4.53,0-6.95,0c-3.48,9.75-6.88,19.27-10.35,29.02c2.3,0,4.27,0,6.3,0c0.62-1.73,1.23-3.41,1.84-5.11
		c3.78,0,7.44,0,11.11,0c0.64,1.83,1.23,3.49,1.81,5.13c2.21,0,4.21,0,6.5,0C95.9,171.05,92.5,161.43,89.12,151.84z M81.84,169.95
		c1.15-3.53,2.28-6.97,3.75-11.5c1.44,4.5,2.51,7.87,3.67,11.5C86.71,169.95,84.43,169.95,81.84,169.95z"/>
	<path d="M143.47,151.86c-2.5,0-4.63,0-6.96,0c-3.44,9.63-6.87,19.25-10.33,28.97c2.32,0,4.3,0,6.29,0
		c0.66-1.81,1.27-3.48,1.89-5.18c3.75,0,7.34,0,10.99,0c0.66,1.82,1.31,3.58,1.89,5.16c2.28,0,4.25,0,6.49,0
		C150.23,170.97,146.83,161.36,143.47,151.86z M136.17,169.98c1.19-3.6,2.32-7.03,3.8-11.53c1.44,4.54,2.51,7.92,3.65,11.53
		C141.04,169.98,138.74,169.98,136.17,169.98z"/>
	<path d="M32.08,151.96c-2.54,0-4.75,0-7.04,0c-3.44,9.65-6.84,19.17-10.31,28.91c2.3,0,4.28,0,6.3,0c0.63-1.77,1.23-3.45,1.83-5.11
		c3.8,0,7.46,0,11.13,0c0.65,1.84,1.23,3.5,1.79,5.1c2.24,0,4.23,0,6.51,0C38.82,171.03,35.42,161.42,32.08,151.96z M24.71,169.98
		c1.26-3.78,2.37-7.12,3.81-11.42c1.4,4.35,2.51,7.77,3.68,11.42C29.61,169.98,27.31,169.98,24.71,169.98z"/>
	<path d="M381.34,151.96c-2.52,0-4.73,0-7.04,0c-3.44,9.64-6.84,19.16-10.31,28.9c2.29,0,4.27,0,6.3,0
		c0.62-1.74,1.23-3.42,1.84-5.11c3.78,0,7.44,0,11.11,0c0.64,1.83,1.23,3.49,1.81,5.12c2.21,0,4.21,0,6.51,0
		C388.08,171.05,384.68,161.43,381.34,151.96z M374.05,169.9c1.12-3.47,2.23-6.91,3.7-11.46c1.44,4.46,2.51,7.82,3.69,11.46
		C378.94,169.9,376.68,169.9,374.05,169.9z"/>
	<path d="M528.07,151.84c-2.39,0-4.52,0-6.96,0c-3.48,9.74-6.87,19.26-10.35,29.01c2.29,0,4.26,0,6.3,0
		c0.62-1.72,1.22-3.4,1.84-5.11c3.77,0,7.43,0,11.1,0c0.64,1.82,1.23,3.49,1.82,5.14c2.2,0,4.2,0,6.5,0
		C534.85,171.06,531.46,161.44,528.07,151.84z M520.78,170.04c1.16-3.6,2.26-7.02,3.75-11.64c1.45,4.58,2.55,8.01,3.7,11.64
		C525.66,170.04,523.44,170.04,520.78,170.04z"/>
	<path class="st10" d="M333.57,264.15c2.25-0.69,4.04-1.24,5.57-1.71c1.53,0.76,1.69,1.83,1.71,3c-1.38,1.99-3.66,1.87-5.77,2.83
		C334.54,266.82,334.1,265.6,333.57,264.15z"/>
	<path class="st11" d="M388.86,242.46c-0.2,2.08-1.58,3.48-4.1,3.48c-2.89,0.01-6.6-3.97-6.4-6.82c0.17-2.37,1.61-3.7,3.94-3.8
		C385.11,235.21,388.87,239.14,388.86,242.46z"/>
	<path class="st11" d="M298.07,274.26c0.15-2.93,0.9-5.6,4.43-5.61c3.72-0.01,4.55,2.82,4.59,5.84c0.04,2.97-1,5.61-4.41,5.63
		C299.03,280.14,298.19,277.34,298.07,274.26z"/>
	<path class="st12" d="M218.58,235.94c-1.09,1.91-1.9,3.32-2.81,4.92c-0.87-0.95-1.6-1.74-2.41-2.63
		C214.79,237.05,216.16,236.25,218.58,235.94z"/>
	<path class="st13" d="M272.46,273.08c-1.67-0.28-2.81-0.28-3.76-1.37c0.86-1.32,1.74-2.67,3.18-4.89
		C272.12,269.44,272.28,271.16,272.46,273.08z"/>
</g>
</svg>
